<svg xmlns="http://www.w3.org/2000/svg" viewBox="0 0 2334 960" role="img" aria-label="VOR Vehicle Operational Report Logo">
  <g transform="translate(0.000000,960.000000) scale(0.100000,-0.100000)" fill="#FFFFFF">
<path d="M10325 8280 c-6 -9 -25 -11 -67 -6 -73 7 -98 -4 -98 -44 0 -38 -15
-38 -35 0 -15 29 -38 39 -49 21 -4 -5 -50 -12 -104 -16 -53 -4 -109 -14 -124
-21 -15 -8 -39 -14 -53 -14 -14 0 -39 -7 -56 -15 -16 -9 -60 -19 -97 -24 -41
-5 -89 -19 -118 -35 -27 -14 -54 -26 -60 -26 -6 0 -26 -13 -44 -30 -40 -36
-43 -36 -62 -8 l-14 21 -20 -21 c-11 -12 -38 -29 -59 -38 -22 -9 -54 -27 -72
-40 -17 -13 -36 -24 -42 -24 -6 0 -16 -9 -23 -20 -7 -11 -22 -20 -33 -20 -26
0 -42 -10 -129 -82 -19 -16 -43 -28 -55 -28 -13 0 -26 -10 -33 -25 -6 -14 -17
-25 -24 -25 -7 0 -31 -18 -53 -40 -22 -22 -44 -40 -50 -40 -6 0 -14 -15 -19
-32 -6 -25 -16 -36 -42 -44 -18 -6 -39 -18 -45 -28 -7 -9 -17 -16 -24 -16 -6
0 -17 -11 -23 -25 -6 -14 -26 -35 -45 -46 -18 -11 -33 -27 -33 -34 0 -8 -9
-17 -21 -20 -11 -4 -27 -22 -36 -41 -9 -19 -22 -34 -29 -34 -7 0 -14 -15 -16
-32 -2 -24 -9 -34 -23 -36 -34 -6 -92 -72 -124 -139 -17 -35 -31 -70 -31 -76
0 -7 -16 -28 -35 -47 -19 -19 -35 -39 -35 -45 0 -7 -9 -20 -19 -29 -11 -10
-22 -37 -26 -59 -4 -23 -20 -61 -36 -84 -16 -23 -29 -50 -29 -60 0 -11 -5 -24
-11 -30 -18 -18 -80 -214 -77 -242 2 -20 -2 -26 -22 -31 -22 -5 -25 -12 -26
-50 0 -25 -4 -66 -8 -92 -7 -46 -6 -48 16 -48 13 0 32 7 42 15 11 8 35 15 53
15 31 0 49 6 151 51 23 11 58 19 78 19 19 0 44 5 56 11 11 6 49 13 86 15 36 3
98 12 136 20 39 8 132 18 206 21 74 3 141 9 148 12 7 4 35 4 61 1 27 -3 71 -3
97 0 27 3 59 2 72 -4 18 -8 28 -4 52 19 17 16 30 34 30 41 0 7 11 25 24 41 13
15 29 45 37 67 8 21 24 43 36 49 12 5 26 23 32 38 5 16 15 29 20 29 6 0 13 11
17 24 3 13 16 28 30 35 13 6 24 19 24 29 0 21 39 62 60 62 13 0 68 45 150 125
25 24 59 46 77 50 17 3 45 19 62 36 17 16 37 29 44 29 8 0 22 9 31 19 10 10
38 22 64 26 26 4 66 15 89 26 23 10 51 19 62 19 11 0 24 7 29 16 7 13 13 14
29 5 17 -8 26 -7 46 10 23 18 49 21 244 29 244 9 363 -1 506 -46 43 -13 88
-24 100 -24 13 0 30 -8 39 -19 9 -10 40 -26 69 -36 30 -9 59 -23 64 -30 6 -6
28 -18 50 -26 22 -7 47 -19 56 -26 8 -7 19 -13 23 -13 3 0 23 -7 43 -15 29
-12 33 -18 23 -30 -13 -16 -6 -35 15 -35 8 0 28 -13 45 -30 17 -16 36 -30 43
-30 7 0 48 -43 92 -95 43 -52 82 -95 87 -95 4 0 16 -17 27 -37 10 -21 31 -49
45 -62 14 -14 26 -34 26 -46 0 -12 11 -32 25 -45 14 -13 25 -32 25 -42 0 -10
11 -36 25 -58 14 -22 25 -44 25 -49 0 -24 25 -61 44 -67 12 -3 32 -19 46 -34
21 -24 40 -32 110 -46 47 -9 95 -22 106 -29 12 -8 50 -17 85 -21 35 -4 73 -13
84 -19 11 -7 40 -16 65 -19 25 -4 55 -14 67 -22 13 -8 42 -13 68 -12 34 1 51
-4 68 -20 16 -15 36 -22 62 -22 21 0 46 -6 54 -14 30 -26 204 -82 290 -93 18
-2 47 -10 65 -17 32 -13 102 -10 111 5 3 4 -3 17 -14 28 -18 18 -19 25 -9 46
9 20 8 28 -6 44 -11 13 -16 32 -14 62 3 39 0 44 -19 47 -20 3 -23 -1 -25 -35
l-1 -38 -4 34 c-3 21 2 47 13 66 16 30 16 36 1 83 -10 28 -17 64 -17 81 0 16
-7 42 -15 58 -8 15 -31 73 -51 128 -19 55 -40 109 -44 120 -5 11 -14 37 -20
58 -7 21 -20 46 -30 55 -9 9 -23 33 -29 54 -7 20 -18 39 -26 41 -7 3 -16 21
-20 39 -4 18 -14 41 -23 51 -18 20 -35 48 -56 95 -9 18 -25 45 -36 59 -11 14
-20 34 -20 45 0 10 -18 36 -40 58 -22 22 -40 45 -40 53 0 8 -9 22 -21 33 -12
10 -28 32 -36 49 -9 16 -26 38 -39 48 -13 10 -24 24 -24 32 0 14 -24 35 -114
100 -30 22 -58 47 -61 56 -3 9 -16 22 -30 29 -14 7 -27 21 -30 31 -3 10 -14
21 -24 24 -10 3 -33 24 -51 46 -28 35 -37 40 -61 35 -25 -5 -34 1 -71 44 -24
28 -48 50 -55 50 -7 0 -17 9 -23 21 -16 29 -70 59 -108 59 -32 0 -50 13 -94
68 -10 12 -28 22 -39 22 -12 0 -37 12 -56 26 -18 14 -50 27 -71 29 -21 2 -62
14 -92 28 -72 33 -233 87 -259 87 -11 0 -64 11 -117 24 -52 14 -102 22 -110
19 -8 -3 -33 2 -55 12 -35 16 -44 17 -82 4 -49 -16 -63 -15 -97 10 -22 16 -57
20 -257 26 -179 6 -232 4 -238 -5z m1225 -260 c0 -5 -2 -10 -4 -10 -3 0 -8 5
-11 10 -3 6 -1 10 4 10 6 0 11 -4 11 -10z m-2730 -470 c0 -5 -5 -10 -11 -10
-5 0 -7 5 -4 10 3 6 8 10 11 10 2 0 4 -4 4 -10z m-141 -19 c11 -20 5 -31 -16
-31 -7 0 -13 11 -13 25 0 29 15 33 29 6z m3696 -71 c3 -5 -3 -10 -14 -10 -11
0 -23 5 -26 10 -3 6 3 10 14 10 11 0 23 -4 26 -10z m122 -122 c-3 -7 -5 -2 -5
12 0 14 2 19 5 13 2 -7 2 -19 0 -25z m58 -58 c3 -5 2 -10 -4 -10 -5 0 -13 5
-16 10 -3 6 -2 10 4 10 5 0 13 -4 16 -10z m-2925 -100 c0 -5 -2 -10 -4 -10 -3
0 -8 5 -11 10 -3 6 -1 10 4 10 6 0 11 -4 11 -10z m1683 -38 c15 -16 15 -21 3
-38 -8 -10 -16 -17 -18 -14 -2 3 -11 20 -20 38 -16 30 -16 32 1 32 10 0 25 -8
34 -18z m401 -188 c9 -3 16 -12 16 -20 0 -16 -28 -18 -50 -4 -13 9 -13 11 0
20 18 12 15 11 34 4z m-34 -124 c13 -8 13 -11 -2 -26 -14 -14 -20 -15 -32 -5
-16 13 -11 41 8 41 6 0 18 -5 26 -10z m-2430 -136 c0 -17 -22 -14 -28 4 -2 7
3 12 12 12 9 0 16 -7 16 -16z m-900 -240 c0 -17 -22 -14 -28 4 -2 7 3 12 12
12 9 0 16 -7 16 -16z m-130 -14 c0 -5 -5 -10 -11 -10 -5 0 -7 5 -4 10 3 6 8
10 11 10 2 0 4 -4 4 -10z m4778 -40 c7 -18 7 -32 1 -35 -17 -11 -29 6 -29 41
0 40 13 38 28 -6z m-474 -241 c-7 -11 -34 -12 -34 -1 0 14 11 21 26 15 8 -3
11 -9 8 -14z m458 -21 c-9 -9 -12 -7 -12 12 0 19 3 21 12 12 9 -9 9 -15 0 -24z
M2405 8150 c-12 -19 4 -58 25 -65 21 -7 23 -13 20 -57 -1 -17 7 -34 19 -45 14
-12 21 -29 21 -55 0 -22 16 -70 40 -122 22 -47 40 -91 40 -98 0 -8 5 -19 12
-26 13 -13 32 -63 52 -132 17 -60 31 -86 79 -143 35 -42 39 -52 34 -86 -3 -28
2 -51 19 -85 13 -26 24 -52 24 -57 0 -6 11 -25 24 -42 13 -18 27 -49 31 -69 4
-21 13 -42 21 -49 8 -6 14 -24 14 -38 0 -15 11 -42 25 -61 14 -19 25 -39 25
-44 0 -6 20 -30 45 -54 24 -23 47 -51 50 -62 4 -11 10 -20 15 -20 5 0 19 -18
30 -40 11 -22 25 -40 31 -40 5 0 15 -13 20 -30 6 -16 23 -36 37 -43 15 -7 36
-30 48 -52 12 -24 28 -39 37 -39 10 1 17 -6 17 -17 0 -10 14 -31 30 -46 17
-14 30 -31 30 -37 0 -6 36 -49 79 -94 44 -46 81 -86 83 -91 2 -4 17 -14 33
-22 19 -9 31 -23 33 -39 2 -14 14 -36 27 -50 12 -14 30 -37 40 -52 9 -15 34
-35 56 -45 24 -10 39 -24 39 -35 0 -11 13 -23 34 -32 24 -10 37 -24 45 -49 9
-25 24 -41 56 -58 27 -14 45 -31 45 -41 0 -21 49 -68 71 -68 8 0 26 -11 39
-25 13 -14 33 -25 45 -25 32 0 66 -29 63 -53 -3 -23 31 -47 70 -47 15 0 22 -6
22 -20 0 -12 10 -25 25 -32 14 -6 25 -15 25 -19 0 -5 14 -16 32 -25 18 -9 45
-29 60 -45 28 -27 166 -99 192 -99 8 0 17 -11 20 -25 5 -19 13 -25 34 -25 16
0 43 -11 62 -25 19 -14 46 -25 61 -25 14 0 32 -7 39 -15 18 -21 36 -19 55 8
13 19 17 20 25 7 5 -8 10 -23 10 -32 0 -24 16 -31 40 -18 17 9 25 6 46 -15 67
-67 72 0 10 117 -25 46 -49 101 -55 123 -27 103 -48 172 -58 190 -6 11 -14 36
-18 55 -4 19 -16 47 -26 62 -11 14 -19 34 -19 43 0 9 -14 29 -32 45 -28 26
-32 36 -29 70 2 26 -4 51 -17 73 -11 17 -27 56 -37 84 -9 29 -21 55 -26 58 -5
4 -9 13 -9 20 0 8 -11 39 -25 69 -14 30 -25 66 -25 79 0 15 -10 31 -25 41 -14
9 -23 21 -20 26 3 5 -1 25 -9 45 -15 34 -38 46 -52 24 -4 -8 -9 -7 -15 2 -15
24 -10 38 16 45 33 8 32 21 -10 100 -19 36 -35 71 -35 78 0 7 -11 23 -25 36
-14 13 -25 35 -25 49 0 14 -7 35 -15 45 -8 11 -22 46 -31 77 -9 32 -25 66 -35
75 -11 9 -19 30 -19 47 0 16 -6 41 -14 55 -19 37 -51 115 -50 122 14 62 13 71
-10 80 -17 6 -27 22 -35 57 -7 26 -21 57 -31 68 -10 11 -20 39 -23 61 -2 23
-14 58 -25 79 -12 20 -22 49 -22 65 0 15 -7 30 -15 34 -8 3 -15 14 -15 24 0
11 -7 25 -15 32 -9 7 -13 19 -11 27 3 8 -6 25 -21 37 -22 19 -25 27 -16 38 9
10 8 21 -4 47 -9 18 -22 35 -30 38 -7 3 -13 12 -13 20 0 8 -14 28 -32 44 -23
23 -28 33 -20 41 17 17 15 63 -3 78 -8 7 -15 18 -15 24 0 30 -23 86 -35 86 -7
0 -16 14 -20 30 -7 33 -16 37 -35 15 -8 -9 -21 -13 -32 -9 -10 3 -24 1 -31 -4
-7 -5 -48 -6 -102 -1 -238 21 -587 29 -834 18 -232 -9 -270 -9 -323 7 -9 3
-19 0 -23 -6z m1536 -486 c13 -15 30 -44 45 -72 3 -7 -7 -26 -25 -44 -17 -17
-31 -40 -31 -50 0 -10 -7 -21 -15 -24 -8 -4 -15 -12 -15 -20 0 -8 -7 -14 -15
-14 -8 0 -15 6 -15 14 0 8 7 16 15 20 8 3 15 12 15 20 0 7 14 29 31 47 25 26
29 37 20 49 -6 8 -15 25 -21 38 -5 12 -14 22 -20 22 -5 0 -10 7 -10 15 0 20
24 19 41 -1z m69 -136 c0 -16 -3 -19 -11 -11 -6 6 -8 16 -5 22 11 17 16 13 16
-11z m-20 -43 c0 -8 -7 -15 -15 -15 -16 0 -20 12 -8 23 11 12 23 8 23 -8z
m155 -305 c0 -7 -6 -15 -12 -17 -8 -3 -13 4 -13 17 0 13 5 20 13 18 6 -3 12
-11 12 -18z m214 -786 c-8 -10 -15 -12 -22 -5 -7 7 -4 17 9 32 16 18 19 19 22
5 2 -9 -2 -24 -9 -32z m25 -110 c10 -26 7 -34 -14 -34 -11 0 -20 4 -20 9 0 17
12 41 20 41 4 0 11 -7 14 -16z m-314 -304 c0 -5 -4 -10 -10 -10 -5 0 -10 5
-10 10 0 6 5 10 10 10 6 0 10 -4 10 -10z m235 -260 c3 -5 1 -10 -4 -10 -6 0
-11 5 -11 10 0 6 2 10 4 10 3 0 8 -4 11 -10z m-120 -10 c-3 -5 -12 -7 -20 -3
-21 7 -19 13 6 13 11 0 18 -4 14 -10z m75 -80 c0 -5 -4 -10 -9 -10 -6 0 -13 5
-16 10 -3 6 1 10 9 10 9 0 16 -4 16 -10z m238 -186 c12 -4 22 -13 22 -20 0
-21 -34 -17 -55 6 -20 22 -11 25 33 14z M6725 8150 c-1 -3 -6 -25 -10 -50 -4
-24 -18 -59 -32 -76 -13 -18 -27 -48 -30 -68 -5 -31 -3 -36 13 -36 11 0 26 -5
34 -10 13 -8 13 -11 -1 -26 -13 -12 -21 -14 -37 -5 -11 6 -25 11 -30 11 -11 0
-32 -45 -32 -68 0 -9 -14 -46 -30 -80 -17 -35 -30 -74 -30 -86 0 -12 -7 -31
-15 -42 -8 -10 -15 -33 -15 -50 0 -20 -11 -43 -35 -70 -19 -21 -35 -47 -35
-57 0 -10 -11 -37 -24 -60 -13 -23 -26 -60 -30 -82 -3 -22 -15 -58 -26 -80
-11 -21 -20 -46 -20 -54 0 -8 -11 -33 -24 -56 -23 -38 -24 -44 -10 -69 17 -35
17 -36 0 -36 -7 0 -25 -9 -38 -20 -20 -15 -26 -31 -31 -76 -4 -42 -12 -64 -31
-83 -14 -15 -26 -39 -26 -53 0 -33 -43 -165 -74 -226 -13 -26 -31 -81 -41
-122 -11 -47 -27 -85 -41 -101 -13 -14 -24 -31 -24 -37 0 -7 -9 -31 -20 -53
-16 -31 -19 -47 -12 -73 9 -29 6 -35 -24 -64 -19 -18 -34 -42 -34 -54 0 -12
-7 -29 -16 -39 -13 -15 -14 -24 -5 -50 15 -43 14 -59 -4 -59 -8 0 -15 -7 -15
-15 0 -8 -13 -30 -30 -48 -16 -19 -30 -39 -30 -44 0 -6 -8 -18 -19 -27 -10 -9
-24 -37 -31 -61 -7 -25 -18 -50 -26 -56 -7 -6 -16 -32 -20 -57 -3 -26 -13 -55
-21 -64 -9 -10 -13 -25 -9 -34 3 -9 -3 -31 -14 -49 -11 -17 -17 -35 -14 -38 4
-3 -3 -18 -15 -34 -18 -21 -21 -35 -16 -65 6 -34 4 -39 -19 -50 -27 -12 -42
-47 -32 -73 9 -25 51 -18 67 11 12 23 18 26 56 21 33 -3 46 0 59 14 9 11 27
19 40 19 13 0 46 9 74 20 28 11 63 20 79 20 15 0 36 9 46 20 10 11 24 20 31
20 7 0 21 8 31 18 10 10 39 26 65 36 25 9 52 24 58 32 7 7 19 14 27 14 18 0
115 49 128 65 5 6 35 21 66 32 30 12 71 35 90 52 19 17 49 36 67 41 19 5 49
20 67 34 19 14 45 26 59 26 15 0 30 8 36 20 7 13 21 20 40 20 19 0 33 7 39 19
6 10 23 23 38 29 37 13 117 88 108 101 -3 6 5 15 19 21 14 5 26 11 26 12 1 43
25 126 46 157 31 47 43 123 24 146 -15 18 -6 31 25 37 16 3 20 11 20 48 0 53
35 125 63 133 13 3 23 17 27 38 4 19 16 46 27 61 11 15 22 45 25 65 3 21 15
52 27 68 12 17 28 49 36 73 7 24 17 45 21 48 4 2 19 28 33 58 14 29 32 59 40
66 9 7 25 40 36 74 31 98 44 128 73 173 15 24 27 52 27 63 0 21 36 77 115 176
14 18 25 38 25 46 0 9 11 27 24 41 13 14 27 39 31 56 3 16 13 35 21 42 8 6 14
23 14 36 0 14 11 38 25 55 17 20 25 42 25 68 0 21 4 41 9 44 5 4 22 38 37 77
15 39 34 73 41 76 7 3 13 17 13 32 0 15 6 35 14 46 7 11 16 38 20 60 4 22 17
50 28 62 17 18 18 24 7 28 -19 6 -1260 12 -1264 5z m1065 -250 c0 -5 -4 -10
-10 -10 -5 0 -10 5 -10 10 0 6 5 10 10 10 6 0 10 -4 10 -10z m-1165 -239 c3
-5 1 -12 -5 -16 -5 -3 -10 1 -10 9 0 18 6 21 15 7z m1086 -34 c-1 -12 -15 -9
-19 4 -3 6 1 10 8 8 6 -3 11 -8 11 -12z m-1336 -627 c-3 -5 -13 -10 -21 -10
-8 0 -14 5 -14 10 0 6 9 10 21 10 11 0 17 -4 14 -10z m980 -60 c-3 -5 -10 -10
-16 -10 -5 0 -9 5 -9 10 0 6 7 10 16 10 8 0 12 -4 9 -10z m-132 -87 c-3 -9 -9
-11 -15 -5 -5 5 -6 17 -2 26 5 13 9 14 14 5 5 -7 6 -19 3 -26z m97 30 c0 -14
-19 -38 -25 -32 -8 8 5 39 16 39 5 0 9 -3 9 -7z M13502 8152 c-6 -5 -12 -19
-12 -33 0 -13 0 -98 0 -189 -1 -94 3 -178 9 -194 7 -17 8 -34 2 -44 -13 -25
-18 -446 -6 -497 4 -16 20 -51 36 -76 16 -25 29 -51 29 -57 0 -6 14 -21 30
-34 18 -13 30 -31 30 -45 0 -38 26 -91 49 -98 21 -6 33 -34 28 -70 -1 -12 6
-24 20 -30 15 -6 21 -16 18 -26 -3 -9 4 -27 15 -42 11 -14 20 -34 20 -46 0
-11 11 -41 25 -67 17 -32 25 -63 25 -96 0 -34 7 -60 25 -88 14 -22 25 -53 25
-68 0 -16 8 -40 19 -53 11 -15 21 -50 25 -94 9 -90 24 -145 44 -168 13 -15 14
-20 3 -27 -18 -11 -9 -109 14 -143 13 -21 15 -41 10 -109 -5 -61 -3 -94 8
-123 11 -30 13 -73 9 -178 -3 -97 -1 -150 8 -177 10 -31 10 -45 0 -69 -12 -30
-19 -114 -23 -294 -2 -81 -6 -100 -20 -108 -9 -6 -17 -21 -17 -34 0 -13 -5
-36 -11 -52 -6 -15 -14 -70 -18 -122 -6 -71 -12 -96 -25 -103 -11 -6 -16 -23
-16 -53 0 -26 -10 -63 -25 -93 -14 -28 -25 -61 -25 -73 0 -13 -7 -33 -15 -43
-8 -11 -15 -34 -15 -52 0 -17 -7 -37 -15 -44 -8 -7 -15 -22 -15 -34 0 -12 -7
-31 -15 -42 -8 -10 -15 -27 -15 -37 0 -31 -51 -131 -81 -159 -17 -15 -29 -37
-29 -51 0 -13 -8 -35 -19 -48 -10 -13 -21 -34 -25 -46 -4 -11 -13 -27 -21 -33
-8 -7 -15 -27 -15 -46 0 -18 -4 -36 -10 -39 -16 -10 -12 -219 6 -288 10 -41
13 -77 9 -107 -4 -25 -7 -159 -6 -299 1 -225 -1 -257 -16 -273 -26 -29 -2 -43
75 -45 308 -8 1063 -9 1089 -1 21 6 33 17 38 35 3 14 5 447 4 961 -2 1051 -8
967 74 951 49 -9 631 -4 647 6 26 16 59 -5 70 -45 6 -21 22 -53 36 -69 14 -17
30 -46 35 -64 5 -18 25 -52 44 -74 19 -23 35 -48 35 -57 0 -9 14 -30 30 -48
17 -17 30 -38 30 -46 0 -8 11 -23 25 -34 17 -14 25 -29 25 -52 0 -19 10 -46
25 -66 14 -19 25 -39 25 -45 0 -6 11 -22 24 -34 16 -15 27 -39 31 -71 5 -35
15 -55 37 -76 17 -16 50 -69 73 -119 24 -49 55 -101 68 -113 14 -13 28 -35 32
-50 3 -14 15 -37 26 -50 10 -14 19 -31 19 -38 0 -8 16 -38 36 -66 20 -28 46
-70 56 -92 35 -72 53 -103 71 -120 9 -10 17 -24 17 -31 0 -20 44 -83 75 -107
20 -15 26 -27 22 -46 -5 -24 9 -52 105 -222 8 -15 24 -53 33 -77 2 -7 22 -21
43 -32 36 -18 43 -19 85 -6 31 9 56 11 79 5 46 -12 203 -14 713 -7 414 6 440
7 443 24 1 10 -13 37 -32 59 -19 22 -39 58 -45 80 -6 23 -20 49 -31 59 -11 10
-20 26 -20 35 0 10 -6 23 -14 29 -8 7 -29 42 -45 78 l-31 66 -36 -6 c-31 -5
-35 -4 -29 11 28 70 29 75 7 93 -12 9 -22 22 -22 27 0 6 -13 20 -29 32 -17 11
-33 31 -37 43 -4 12 -15 33 -25 46 -11 13 -19 36 -19 52 0 18 -7 32 -20 39
-11 6 -20 17 -20 24 0 7 -11 25 -25 40 -14 15 -25 35 -25 46 0 10 -11 31 -23
47 -13 15 -27 40 -31 55 -3 15 -15 29 -25 33 -11 3 -22 19 -26 36 -4 16 -15
35 -26 42 -12 7 -19 23 -19 42 0 35 -8 49 -32 58 -10 3 -18 15 -18 27 0 11
-13 32 -30 46 -18 17 -35 47 -45 80 -9 33 -21 54 -30 54 -20 0 -45 40 -45 71
0 14 -9 36 -20 49 -11 13 -20 28 -20 35 0 6 -11 21 -26 34 -17 15 -23 28 -19
41 4 13 -1 25 -14 37 -12 10 -21 25 -21 35 0 10 -9 23 -20 30 -11 7 -20 19
-20 25 0 7 -13 32 -30 55 -16 22 -30 46 -30 53 0 6 -11 21 -25 33 -14 12 -25
31 -25 42 0 11 -11 30 -24 41 -13 12 -27 36 -30 53 -4 18 -20 45 -36 60 -36
31 -37 39 -9 67 15 15 29 20 49 15 22 -4 32 0 44 19 9 14 24 25 34 25 31 -1
137 62 157 94 15 22 31 32 58 37 21 3 50 18 65 32 16 15 32 27 36 27 11 0 182
139 227 185 34 34 89 114 89 130 0 8 20 37 45 65 25 28 45 56 45 64 0 7 11 22
24 33 13 12 27 36 31 55 4 18 13 40 20 48 7 8 18 39 24 69 7 34 21 63 36 77
13 12 27 35 30 51 4 15 13 45 21 66 8 20 14 62 14 93 0 33 6 64 16 79 11 17
17 55 19 127 2 57 6 121 9 143 14 111 17 177 8 188 -5 7 -10 66 -10 132 0 98
-4 130 -21 173 -12 29 -21 62 -21 73 0 27 -40 148 -51 155 -5 3 -9 13 -9 23 0
10 -7 32 -15 47 -8 16 -15 39 -15 50 0 12 -7 27 -15 34 -8 7 -15 22 -15 34 0
42 -12 63 -44 78 -27 13 -34 25 -50 79 -10 35 -19 69 -21 76 -2 7 -23 22 -47
34 -47 24 -67 45 -68 70 0 9 -16 24 -35 33 -20 10 -35 24 -35 34 0 19 -82 102
-100 102 -6 0 -34 22 -61 49 -27 27 -69 59 -93 71 -25 11 -47 28 -50 36 -3 8
-32 27 -65 43 -32 15 -67 35 -76 44 -9 9 -28 20 -43 23 -15 3 -38 11 -52 18
-14 7 -42 14 -63 15 -25 1 -56 14 -90 37 -35 24 -57 33 -72 29 -22 -7 -26 -7
-70 0 -98 15 -194 34 -218 44 -16 6 -56 11 -90 11 -34 0 -78 5 -97 10 -61 17
-733 26 -1835 22 -341 -1 -649 1 -685 3 -36 3 -71 1 -78 -3z m4105 -968 c8
-21 -13 -42 -28 -27 -13 13 -5 43 11 43 6 0 13 -7 17 -16z m-3977 -10 c0 -9
-5 -14 -12 -12 -18 6 -21 28 -4 28 9 0 16 -7 16 -16z m2618 4 c-3 -7 -11 -13
-18 -13 -7 0 -15 6 -17 13 -3 7 4 12 17 12 13 0 20 -5 18 -12z m-290 -53 c50
-1 80 -8 119 -28 29 -15 57 -27 64 -27 6 0 23 -8 37 -18 15 -10 49 -26 75 -36
27 -10 51 -25 54 -33 3 -8 29 -25 57 -38 32 -15 58 -35 69 -54 10 -17 29 -39
43 -47 13 -9 24 -26 24 -37 0 -12 10 -32 23 -46 18 -20 26 -47 35 -109 6 -45
19 -98 27 -117 12 -24 14 -39 6 -53 -7 -13 -6 -33 5 -68 19 -62 7 -219 -22
-297 -8 -20 -14 -53 -14 -71 0 -18 -6 -39 -14 -45 -7 -6 -16 -31 -18 -54 -3
-28 -14 -53 -32 -72 -23 -25 -27 -36 -22 -67 8 -48 -11 -61 -37 -25 l-20 26
-42 -42 c-23 -23 -47 -52 -53 -64 -10 -18 -20 -22 -53 -20 -31 1 -45 -4 -57
-20 -24 -30 -109 -70 -167 -78 -27 -4 -55 -11 -61 -16 -18 -15 -134 -29 -309
-40 -117 -6 -688 -6 -946 1 -13 0 -18 31 -9 55 6 15 6 34 1 48 -6 15 -4 34 5
55 10 25 13 161 13 687 0 360 3 666 7 680 4 14 1 31 -6 40 -7 8 -10 22 -6 30
5 13 78 15 568 17 327 2 568 -1 576 -6 7 -5 43 -10 80 -11z m-1278 -4 c0 -5
-6 -14 -14 -20 -10 -9 -15 -8 -19 3 -3 8 -3 17 0 20 9 9 33 7 33 -3z m2905
-22 c9 -17 15 -40 13 -52 -3 -20 -5 -18 -21 12 -16 32 -23 71 -12 71 2 0 12
-14 20 -31z m51 -125 c-5 -14 -9 -15 -19 -5 -9 9 -9 14 3 21 18 11 24 6 16
-16z m-3516 -1425 c0 -11 -4 -18 -10 -14 -5 3 -7 12 -3 20 7 21 13 19 13 -6z
m-17 -383 c6 -15 -1 -26 -15 -26 -4 0 -8 9 -8 20 0 23 15 27 23 6z m1668 -892
c17 -8 28 -21 26 -27 -7 -22 -32 -16 -55 13 -26 33 -16 38 29 14z m1134 6 c3
-5 -3 -10 -14 -10 -12 0 -21 5 -21 10 0 6 6 10 14 10 8 0 18 -4 21 -10z m5
-80 c0 -11 -4 -20 -10 -20 -5 0 -10 9 -10 20 0 11 5 20 10 20 6 0 10 -9 10
-20z m90 -79 c0 -12 -20 -25 -27 -18 -7 7 6 27 18 27 5 0 9 -4 9 -9z m130
-301 c0 -5 -2 -10 -4 -10 -3 0 -8 5 -11 10 -3 6 -1 10 4 10 6 0 11 -4 11 -10z
m-904 -447 c-10 -10 -19 5 -10 18 6 11 8 11 12 0 2 -7 1 -15 -2 -18z m-2616
-285 c0 -18 -2 -20 -9 -8 -6 8 -7 18 -5 22 9 14 14 9 14 -14z m60 -93 c0 -14
-4 -25 -10 -25 -11 0 -14 33 -3 43 11 11 13 8 13 -18z m2875 -95 c3 -5 1 -10
-4 -10 -6 0 -11 5 -11 10 0 6 2 10 4 10 3 0 8 -4 11 -10z M19199 8144 c-11
-14 -25 -15 -85 -10 -46 4 -75 3 -79 -4 -8 -13 -48 -13 -62 1 -6 6 -100 10
-266 10 -208 0 -260 -3 -279 -15 -13 -8 -42 -19 -65 -25 -50 -14 -104 -60
-141 -121 l-27 -45 0 -2455 c0 -1350 3 -2499 7 -2552 10 -134 32 -204 70 -228
16 -10 36 -27 44 -38 8 -11 31 -26 52 -33 20 -6 45 -17 55 -24 13 -9 51 -11
135 -8 64 3 126 4 137 3 34 -5 2633 -4 2932 1 l282 5 58 48 c59 49 92 95 93
131 0 12 6 27 13 33 14 15 22 678 17 1597 -1 319 -3 1250 -4 2069 -1 1221 -3
1490 -14 1494 -7 2 -17 15 -22 28 -6 13 -21 29 -35 34 -14 5 -25 16 -25 24 0
9 -9 20 -20 26 -20 11 -25 7 -54 -34 -15 -22 -36 -14 -36 15 0 14 7 19 25 19
16 0 25 6 25 15 0 22 -29 30 -52 16 -16 -10 -23 -10 -36 2 -14 13 -67 15 -317
16 -165 0 -340 -1 -390 -2 l-90 -3 -5 -90 c-3 -49 -3 -120 0 -159 3 -38 1 -90
-3 -115 -5 -25 -9 -60 -10 -79 -2 -27 -8 -37 -36 -52 -31 -17 -83 -18 -837
-19 -441 0 -814 2 -828 6 -15 3 -26 12 -26 20 0 8 -16 20 -35 28 -40 17 -36
-4 -40 256 -2 164 -1 157 -23 137 -19 -18 -32 -14 -32 10 0 7 6 13 13 13 19 1
51 50 40 61 -6 6 -15 4 -24 -7z m-209 -99 c0 -8 -4 -15 -10 -15 -5 0 -10 7
-10 15 0 8 5 15 10 15 6 0 10 -7 10 -15z m2980 -25 c0 -5 -4 -10 -9 -10 -6 0
-13 5 -16 10 -3 6 1 10 9 10 9 0 16 -4 16 -10z m-134 -56 c13 -16 44 -19 44
-4 0 6 4 10 8 10 20 0 31 -842 34 -2440 3 -1722 1 -2177 -12 -2435 -1 -16 5
-67 13 -113 13 -77 12 -84 -5 -112 -10 -17 -18 -37 -18 -46 0 -8 -11 -26 -25
-39 l-24 -25 -1684 0 -1684 0 -56 37 c-50 33 -57 43 -62 78 -4 31 -1 4830 3
4870 1 6 -1 35 -4 66 -4 43 -2 58 10 68 9 8 16 17 16 22 0 17 46 56 79 67 50
17 585 17 598 0 6 -7 11 -70 12 -140 3 -143 16 -193 75 -282 32 -49 41 -55 98
-71 71 -21 124 -25 151 -12 11 5 23 4 31 -2 9 -8 243 -11 757 -11 797 0 794
-1 902 50 42 20 67 52 67 87 0 9 10 27 23 41 20 22 22 35 25 164 3 126 2 141
-15 154 -17 13 -17 15 -1 27 25 20 628 11 644 -9z m204 2 c0 -11 -19 -15 -25
-6 -3 5 1 10 9 10 9 0 16 -2 16 -4z m-3760 -191 c14 -17 5 -36 -15 -28 -16 6
-21 43 -6 43 5 0 14 -7 21 -15z m2800 -70 c0 -14 -4 -25 -10 -25 -11 0 -14 33
-3 43 11 11 13 8 13 -18z m-2755 -4913 c0 -18 -20 -15 -23 4 -3 10 1 15 10 12
7 -3 13 -10 13 -16z m90 -82 c3 -5 3 -15 0 -20 -7 -12 -45 5 -45 20 0 13 37
13 45 0z M19386 6815 c-26 -25 -51 -45 -56 -45 -5 0 -12 -11 -16 -25 -4 -17
-16 -28 -38 -33 -19 -5 -31 -15 -31 -25 0 -9 -12 -29 -27 -44 -55 -55 -118
-130 -118 -140 0 -15 -35 -43 -54 -43 -10 0 -21 12 -27 28 -9 26 -87 92 -108
92 -17 0 -41 -38 -41 -64 0 -21 7 -30 30 -40 17 -7 42 -29 56 -49 13 -20 29
-37 35 -37 6 0 22 -8 35 -19 33 -26 71 -17 88 23 7 17 29 43 49 56 20 14 37
30 37 37 0 6 9 18 19 25 11 8 25 26 32 42 7 15 26 34 41 42 15 8 34 30 42 48
8 19 24 37 36 41 11 4 34 25 51 47 16 23 38 48 49 55 17 12 18 18 9 36 -12 22
-28 37 -41 37 -3 0 -27 -20 -52 -45z M18750 6837 c-64 -22 -60 -3 -56 -310 4
-242 12 -346 28 -362 2 -2 107 -5 233 -7 127 -2 236 -8 243 -12 8 -5 21 -1 32
9 13 12 27 15 50 10 25 -5 38 -1 68 21 51 38 52 41 52 112 0 43 -6 73 -20 99
-25 47 -25 57 1 93 26 35 20 80 -11 80 -34 0 -43 -38 -48 -186 l-4 -142 -37
-4 c-20 -3 -134 -4 -255 -2 -245 3 -250 4 -247 71 3 83 3 102 0 208 -2 88 -6
116 -22 143 -13 23 -17 36 -9 41 6 3 12 22 14 41 3 33 5 35 38 34 135 -6 400
-5 423 1 33 9 52 38 34 53 -7 6 -91 10 -197 11 -102 1 -205 3 -230 6 -25 2
-61 -2 -80 -8z M20049 6657 c-20 -16 -24 -16 -45 -2 -19 12 -46 14 -146 9
-127 -5 -143 -11 -132 -49 8 -28 34 -45 59 -39 11 3 33 0 49 -5 19 -8 33 -8
47 0 16 8 25 7 38 -5 23 -21 54 -20 82 3 20 16 27 17 53 6 30 -12 330 -18 741
-14 286 3 679 -1 711 -7 37 -7 54 10 59 60 4 45 -9 55 -71 56 -27 0 -59 0 -71
0 -13 1 -41 1 -63 1 -22 0 -55 0 -72 1 -18 0 -49 -1 -68 -2 -19 -1 -94 -1
-167 0 -72 1 -136 -1 -142 -5 -6 -3 -17 -3 -23 2 -7 4 -194 8 -415 8 -370 0
-404 -1 -424 -18z M19860 6423 c-116 -5 -116 -5 -117 -60 l-1 -48 652 1 c597
0 654 2 684 18 27 14 32 21 26 39 -3 12 -7 22 -8 22 0 0 -11 6 -23 13 -27 14
-77 16 -102 3 -10 -6 -97 -6 -222 -1 -231 10 -776 18 -889 13z M19400 5881 c0
-12 -90 -103 -122 -124 -16 -10 -28 -23 -28 -30 0 -7 -21 -29 -46 -48 -25 -19
-53 -47 -61 -64 -8 -16 -29 -45 -46 -63 -38 -40 -56 -36 -113 24 -22 24 -48
44 -57 44 -46 0 -65 -80 -24 -101 12 -7 28 -21 36 -31 7 -11 19 -17 25 -15 18
7 31 -3 47 -38 16 -34 57 -59 75 -44 6 5 14 23 17 39 4 19 17 35 37 45 16 8
30 23 30 33 0 16 109 126 184 185 20 16 36 35 36 43 0 7 11 16 25 20 24 6 65
62 65 89 0 21 -29 45 -56 45 -13 0 -24 -4 -24 -9z M18895 5869 c-38 -5 -95 -7
-126 -4 -41 4 -59 2 -68 -8 -21 -26 -2 -639 21 -662 5 -5 629 -8 632 -3 1 2 7
11 15 20 9 12 9 22 2 36 -7 14 -6 22 7 33 15 13 17 36 17 164 0 161 -4 172
-49 133 l-26 -23 9 -115 c11 -135 2 -174 -45 -182 -61 -12 -468 6 -501 21 -1
1 -2 61 -2 134 0 72 -3 148 -7 167 -11 57 -4 183 11 199 21 21 81 27 244 21
146 -5 159 -3 239 33 12 6 21 18 20 26 -3 14 -27 16 -163 17 -88 1 -191 -2
-230 -7z M19855 5703 c-95 -4 -110 -9 -122 -36 -9 -18 -7 -28 7 -47 16 -21 21
-22 58 -13 24 6 60 7 93 2 80 -13 1662 -7 1698 6 11 4 11 9 -3 24 -15 16 -15
19 -1 31 9 7 12 17 8 21 -8 7 -1602 19 -1738 12z M19945 5468 c-16 -5 -65 -9
-107 -9 -100 0 -122 -17 -97 -73 13 -27 48 -38 88 -27 14 4 55 5 91 1 36 -4
78 -3 94 1 16 5 33 6 38 3 5 -4 194 -6 419 -6 361 0 412 2 434 16 32 21 31 29
-6 67 -31 31 -33 32 -113 30 -90 -3 -152 -3 -496 -3 -129 0 -242 0 -250 -1 -8
0 -26 2 -40 5 -14 3 -38 2 -55 -4z M19420 4927 c-14 -6 -29 -18 -34 -26 -16
-26 -90 -97 -113 -110 -13 -6 -23 -16 -23 -22 0 -18 -63 -93 -104 -124 -22
-17 -43 -41 -46 -55 -7 -31 -61 -50 -85 -30 -8 7 -15 17 -15 22 0 17 -67 78
-87 78 -56 0 -73 -73 -23 -97 14 -7 52 -37 84 -68 47 -43 67 -55 92 -55 27 0
36 6 57 43 21 36 59 83 98 122 6 6 18 19 27 29 9 11 32 35 50 54 17 19 32 39
32 43 0 4 10 11 22 15 33 10 80 64 75 86 -3 10 -1 16 4 13 12 -8 45 11 53 30
7 21 -10 65 -26 64 -7 0 -24 -6 -38 -12z M18722 4905 c-30 -45 -37 -88 -30
-187 4 -57 6 -167 3 -245 -3 -112 0 -144 10 -153 9 -7 12 -23 9 -38 -9 -51 -7
-51 271 -52 143 0 277 0 297 0 20 0 39 4 43 10 3 5 16 10 29 10 12 0 25 3 29
6 11 11 -5 34 -23 34 -34 0 -31 19 2 22 l33 3 2 167 c1 92 -2 170 -7 173 -15
9 -40 -7 -54 -34 -10 -18 -13 -64 -12 -158 1 -96 -3 -136 -12 -145 -21 -21
-500 -14 -522 8 -5 5 -9 70 -9 144 0 74 -1 185 -1 246 l-2 111 31 13 c21 8 53
10 98 6 123 -11 283 -14 289 -5 2 5 25 17 50 29 90 39 60 45 -240 45 -173 0
-280 -4 -284 -10z M19783 4752 c-51 -4 -68 -26 -53 -66 7 -20 17 -26 38 -26
16 0 41 -9 55 -20 27 -22 52 -26 62 -10 4 7 253 9 741 8 592 -2 735 -1 739 10
3 10 15 7 44 -10 l40 -23 26 25 c23 22 29 23 57 12 18 -6 36 -8 40 -4 4 4 4
30 0 57 -7 46 -10 50 -32 47 -69 -8 -136 -8 -148 1 -8 7 -20 6 -36 -2 -16 -9
-57 -11 -137 -8 -97 4 -1228 7 -1314 4 -16 -1 -41 1 -55 4 -14 3 -44 3 -67 1z
m1439 -94 c-9 -9 -15 -9 -24 0 -9 9 -7 12 12 12 19 0 21 -3 12 -12z M19790
4502 c-46 -7 -77 -50 -47 -69 28 -18 160 -22 687 -22 479 0 563 2 613 16 41
11 57 20 57 33 0 37 -51 41 -680 43 -333 1 -616 0 -630 -1z M18835 3952 c-2
-2 -29 -4 -61 -5 -85 -3 -84 1 -84 -318 0 -211 3 -275 15 -310 l15 -44 302 3
c181 2 309 7 321 13 12 7 17 18 14 30 -4 14 1 23 17 29 23 8 40 35 31 49 -2 4
-7 109 -11 232 -7 265 -12 319 -28 320 -30 3 -528 4 -531 1z m461 -56 c18 -13
19 -30 22 -272 2 -142 7 -263 12 -269 6 -7 1 -11 -13 -12 -54 -5 -521 -1 -529
3 -4 3 -8 114 -8 248 0 180 -3 245 -12 255 -21 21 28 54 68 46 55 -10 377 -7
404 3 33 14 33 14 56 -2z M19766 3785 c-12 -6 -21 -19 -22 -30 -1 -11 -4 -30
-8 -42 -5 -16 -3 -24 6 -25 15 -2 595 -7 823 -7 88 0 189 3 224 8 36 4 85 4
110 -1 25 -5 75 -8 111 -7 36 1 145 1 243 0 97 -1 181 0 185 3 5 3 27 0 50 -6
50 -12 72 0 72 41 0 61 -8 70 -64 71 -88 2 -1244 0 -1376 -2 -69 -1 -172 0
-229 3 -61 2 -113 0 -125 -6z M19921 3543 c-20 -16 -63 -16 -96 -1 -33 15 -95
-11 -95 -41 0 -29 33 -63 60 -63 14 1 39 1 55 1 17 0 59 0 95 1 36 1 83 2 105
3 22 0 267 -1 545 -4 l505 -4 0 30 c1 17 4 35 8 41 22 36 -88 45 -583 47 -322
2 -346 1 -363 -16 -17 -17 -20 -17 -36 -3 -23 21 -175 28 -200 9z M19364 8145
c-4 -10 -2 -39 5 -64 8 -31 9 -56 3 -72 -11 -30 -10 -229 2 -247 5 -9 17 -11
33 -7 17 4 29 1 37 -10 11 -15 79 -17 723 -20 l711 -4 16 40 c13 31 16 78 16
220 l0 180 -52 -8 c-67 -10 -1435 -8 -1465 2 -17 5 -24 3 -29 -10z M3116 6373
c-13 -13 -5 -54 14 -70 11 -10 20 -25 20 -34 0 -10 11 -30 24 -46 37 -45 46
-68 46 -122 0 -38 5 -53 19 -63 11 -8 23 -27 27 -43 4 -17 27 -72 52 -122 38
-78 49 -93 69 -93 17 0 23 -6 23 -22 0 -21 0 -21 -14 -2 -11 15 -17 16 -27 7
-16 -16 -3 -59 19 -65 14 -4 20 -18 25 -58 7 -57 21 -82 46 -78 13 3 15 -5 13
-40 -2 -27 2 -50 11 -60 7 -10 21 -38 31 -64 9 -25 24 -52 32 -58 7 -7 14 -29
14 -49 1 -20 9 -54 20 -76 11 -22 19 -47 20 -55 0 -23 64 -166 82 -183 9 -9
19 -36 22 -61 4 -25 11 -48 17 -51 5 -4 9 -15 9 -26 0 -10 8 -27 18 -37 9 -10
22 -27 28 -38 6 -10 20 -20 32 -22 12 -2 24 -12 27 -22 3 -10 19 -23 36 -29
17 -6 59 -36 95 -67 35 -31 90 -69 123 -84 65 -31 156 -91 185 -122 12 -13 27
-18 42 -15 13 2 29 -2 35 -9 6 -7 27 -16 46 -20 19 -4 37 -12 40 -19 7 -19 58
-38 81 -31 11 4 28 -1 42 -14 13 -11 32 -20 44 -20 12 0 43 -7 70 -15 27 -8
66 -15 87 -15 20 0 39 -5 41 -12 7 -21 461 -29 481 -9 6 6 31 11 56 11 26 0
69 7 96 16 28 8 70 19 95 24 71 14 172 44 210 64 19 10 64 29 100 43 36 13 76
32 90 41 14 9 39 22 55 28 80 31 143 58 177 75 20 10 44 19 53 19 8 0 20 11
25 25 5 14 16 25 24 25 8 0 33 16 56 35 23 19 48 35 56 35 24 0 84 35 89 52 3
9 16 20 28 24 12 4 35 17 50 30 16 13 35 24 42 24 8 0 17 9 20 20 3 11 13 20
22 20 8 0 35 18 60 40 25 22 52 40 59 40 7 0 31 17 52 39 21 21 58 49 83 61
41 21 122 81 144 107 6 6 30 20 55 32 25 11 60 34 79 51 18 16 39 30 45 30 6
0 24 14 40 30 16 17 35 30 42 30 7 0 34 18 59 40 25 22 49 40 53 40 7 0 83 59
132 103 14 12 39 24 55 27 18 3 34 14 39 26 6 12 28 30 50 39 23 10 57 29 76
44 86 64 127 88 161 95 44 8 122 47 121 61 -1 6 -11 13 -24 17 -20 7 -19 7 5
4 16 -2 46 0 67 5 42 10 125 61 133 83 3 7 25 16 50 19 25 4 71 18 102 32 32
14 63 25 70 25 6 0 20 9 30 20 12 14 25 18 41 14 33 -8 72 3 76 22 4 20 98 54
163 59 28 2 53 4 57 4 3 1 20 13 37 27 25 21 39 25 69 22 20 -3 70 4 111 14
40 11 79 17 86 14 7 -2 48 4 92 16 55 14 121 21 226 24 139 4 205 15 167 28
-8 2 -69 12 -135 21 -88 12 -203 17 -430 17 -421 2 -478 -1 -560 -24 -38 -11
-83 -21 -100 -22 -16 -1 -48 -10 -70 -20 -21 -10 -58 -21 -82 -24 -23 -2 -48
-11 -54 -18 -6 -8 -21 -14 -33 -14 -11 0 -50 -10 -86 -21 -36 -12 -72 -22 -80
-24 -42 -6 -100 -27 -123 -45 -14 -11 -30 -20 -36 -20 -21 0 -188 -77 -196
-90 -3 -6 -24 -10 -45 -10 -26 0 -43 -6 -52 -18 -7 -10 -25 -22 -40 -25 -15
-4 -30 -16 -33 -27 -4 -13 -15 -20 -30 -20 -13 0 -26 -4 -30 -9 -3 -5 -20 -13
-38 -17 -17 -3 -46 -17 -63 -30 -17 -13 -40 -24 -52 -24 -11 0 -33 -10 -49
-23 -58 -48 -103 -68 -125 -56 -16 9 -25 6 -47 -14 -14 -13 -43 -30 -63 -37
-23 -7 -43 -21 -50 -37 -8 -17 -27 -30 -53 -38 -36 -11 -80 -31 -125 -54 -8
-5 -17 -17 -19 -27 -5 -27 -21 -34 -62 -28 -38 6 -40 5 -79 -48 -13 -17 -27
-25 -36 -21 -8 3 -22 -1 -32 -10 -9 -8 -28 -18 -42 -22 -14 -4 -32 -13 -40
-20 -20 -17 -116 -55 -139 -55 -11 0 -31 -13 -44 -30 -19 -23 -34 -30 -60 -30
-45 0 -95 -43 -76 -66 6 -8 9 -17 6 -21 -4 -3 -9 2 -13 11 -8 22 -49 20 -71
-2 -25 -26 -148 -62 -206 -60 -36 1 -52 -4 -66 -19 -14 -14 -38 -22 -86 -27
-38 -4 -93 -16 -124 -26 -30 -11 -71 -20 -91 -20 -19 0 -55 -5 -79 -11 -30 -7
-53 -7 -70 0 -14 6 -89 12 -166 13 -107 3 -148 7 -173 20 -18 9 -54 20 -80 24
-26 4 -57 14 -70 22 -15 10 -36 13 -66 9 -38 -5 -46 -3 -65 19 -18 21 -29 25
-53 20 -24 -5 -38 1 -75 29 -25 19 -51 35 -58 35 -7 0 -18 7 -25 15 -7 8 -23
15 -35 15 -13 0 -42 17 -66 40 -24 22 -52 40 -64 40 -20 0 -42 15 -124 87 -25
21 -54 35 -87 40 -43 8 -49 11 -46 31 4 25 -33 82 -53 82 -7 0 -31 20 -52 44
-23 26 -51 46 -69 50 -20 4 -36 16 -43 32 -6 14 -24 30 -41 35 -16 6 -38 26
-49 45 -13 22 -28 34 -42 34 -23 0 -71 46 -95 91 -7 15 -32 41 -54 59 -25 20
-43 44 -47 62 -4 20 -17 36 -45 51 -26 15 -52 44 -78 88 -22 36 -52 71 -65 77
-14 6 -25 18 -25 25 0 17 -59 73 -86 81 -15 5 -24 18 -28 40 -6 32 -27 52 -40
39z m194 -288 c0 -8 -7 -15 -15 -15 -16 0 -20 12 -8 23 11 12 23 8 23 -8z
m4355 -245 c3 -5 1 -10 -4 -10 -6 0 -11 5 -11 10 0 6 2 10 4 10 3 0 8 -4 11
-10z m-92 -37 c-7 -2 -19 -2 -25 0 -7 3 -2 5 12 5 14 0 19 -2 13 -5z m-4013
-74 c0 -11 -4 -17 -10 -14 -5 3 -10 13 -10 21 0 8 5 14 10 14 6 0 10 -9 10
-21z m-64 -76 c-11 -11 -19 6 -11 24 8 17 8 17 12 0 3 -10 2 -21 -1 -24z m159
-22 c-9 -16 -25 -3 -18 15 4 10 9 12 15 6 6 -6 7 -15 3 -21z m3490 -27 c0 -10
-8 -20 -17 -22 -18 -3 -26 27 -11 42 12 11 28 0 28 -20z m-3500 -64 c3 -5 1
-10 -4 -10 -6 0 -11 5 -11 10 0 6 2 10 4 10 3 0 8 -4 11 -10z m3590 -140 c0
-7 -6 -15 -12 -17 -8 -3 -13 4 -13 17 0 13 5 20 13 18 6 -3 12 -11 12 -18z
m-2750 -309 c7 -12 -12 -24 -25 -16 -11 7 -4 25 10 25 5 0 11 -4 15 -9z m1739
0 c3 -4 -3 -16 -13 -25 -21 -19 -35 -8 -25 18 7 17 29 22 38 7z m-199 -11 c3
-5 1 -10 -4 -10 -6 0 -11 5 -11 10 0 6 2 10 4 10 3 0 8 -4 11 -10z m255 -339
c0 -12 -20 -25 -27 -18 -7 7 6 27 18 27 5 0 9 -4 9 -9z m-1970 -241 c0 -11 -4
-20 -9 -20 -14 0 -23 18 -16 30 10 17 25 11 25 -10z m558 -227 c-10 -2 -28 -2
-40 0 -13 2 -5 4 17 4 22 1 32 -1 23 -4z M11239 6186 c-2 -2 -103 -7 -224 -11
-328 -11 -340 -12 -361 -23 -10 -5 -46 -13 -79 -17 -33 -4 -67 -14 -76 -21 -9
-8 -35 -16 -58 -18 -53 -5 -85 -31 -71 -57 13 -23 -12 -49 -45 -49 -13 0 -44
-14 -69 -31 -25 -17 -50 -28 -56 -24 -5 3 -25 -5 -42 -18 -29 -21 -49 -32
-118 -61 -8 -4 -40 -22 -70 -41 -30 -19 -72 -42 -92 -51 -21 -10 -38 -21 -38
-26 0 -4 -6 -8 -13 -8 -8 0 -24 -11 -37 -25 -15 -16 -34 -25 -53 -25 -21 0
-39 -10 -63 -35 -18 -19 -40 -35 -50 -35 -10 0 -25 -7 -35 -16 -25 -23 -131
-29 -198 -11 -30 8 -71 12 -90 11 -20 -2 -84 -6 -142 -8 -77 -3 -113 -8 -132
-20 -19 -13 -37 -15 -75 -10 -30 4 -57 2 -71 -5 -14 -8 -27 -9 -38 -2 -12 6
-27 3 -52 -10 -22 -12 -56 -19 -86 -19 -28 0 -57 -6 -63 -12 -7 -7 -34 -13
-60 -14 -26 -1 -60 -9 -77 -18 -16 -9 -39 -16 -50 -16 -11 0 -33 -7 -50 -16
-16 -8 -40 -12 -52 -9 -26 6 -76 -16 -95 -43 -9 -13 -31 -21 -69 -25 -31 -3
-74 -14 -95 -25 -22 -11 -62 -25 -91 -32 -35 -8 -54 -18 -58 -31 -5 -15 -9
-17 -25 -7 -16 10 -23 9 -39 -9 -11 -12 -38 -24 -59 -28 -29 -5 -52 -19 -88
-56 l-49 -50 -5 -99 c-4 -77 -9 -103 -24 -119 -18 -20 -18 -23 -3 -78 21 -74
31 -82 60 -55 17 16 36 22 69 22 43 0 51 -4 106 -50 6 -6 12 -19 12 -29 0 -10
16 -31 35 -45 19 -15 35 -30 35 -34 0 -4 -14 -16 -32 -26 -30 -18 -32 -18 -44
-1 -7 10 -15 23 -17 29 -3 8 -13 8 -37 -1 -29 -11 -38 -10 -70 8 -21 12 -45
36 -54 56 -18 37 -36 36 -36 -2 0 -13 -7 -31 -16 -40 -20 -19 -11 -45 15 -45
11 0 22 -4 25 -9 7 -11 92 -26 124 -23 13 2 34 -3 45 -11 12 -8 44 -17 71 -20
27 -4 54 -11 60 -16 6 -4 40 -11 74 -15 35 -3 69 -9 75 -13 6 -4 51 -8 99 -9
l87 -1 -1 36 c-1 20 -9 55 -19 78 -15 36 -16 56 -9 160 6 87 14 128 29 158 12
21 21 50 21 62 0 13 9 31 20 40 11 10 20 25 20 35 0 9 13 26 30 38 16 11 37
34 47 51 10 16 37 39 62 51 24 11 46 29 48 39 3 12 21 21 54 28 28 6 62 20 77
31 21 16 48 22 116 25 49 3 92 8 97 11 12 7 89 -15 89 -26 0 -18 39 -31 60
-20 16 9 22 8 26 -5 3 -8 15 -15 25 -15 10 0 26 -11 35 -25 9 -14 21 -25 28
-25 6 0 36 -25 66 -54 87 -86 83 -80 136 -205 13 -30 18 -65 17 -117 -1 -63 1
-76 17 -84 12 -6 16 -17 13 -30 -5 -19 -1 -20 71 -20 90 0 100 10 67 66 -17
29 -20 46 -15 80 9 60 24 56 24 -6 0 -45 3 -52 25 -60 21 -8 24 -14 19 -38 -8
-40 17 -48 50 -16 18 18 31 24 46 19 12 -4 27 -1 35 5 8 7 26 9 42 6 15 -4 54
0 86 9 32 8 83 15 113 15 39 0 63 6 82 20 25 18 100 37 182 45 67 7 145 23
185 39 22 8 54 15 72 16 17 0 35 5 38 10 3 6 19 10 35 10 16 0 32 4 35 10 5 8
101 42 130 45 32 3 91 19 95 25 3 4 26 17 53 28 26 11 47 25 47 31 0 10 22 15
102 26 38 5 56 15 92 50 25 24 59 46 78 50 36 8 73 33 122 81 17 17 39 34 49
37 9 4 17 13 17 20 0 22 34 47 64 47 31 0 44 23 26 45 -10 13 -8 15 13 15 14
0 27 7 31 15 3 8 18 15 33 16 15 0 44 11 63 25 19 13 50 34 68 45 17 12 32 27
32 35 0 7 12 17 28 20 15 4 41 19 57 34 17 16 39 30 49 32 19 3 44 33 36 41
-3 3 -34 -2 -70 -10 -36 -8 -91 -17 -122 -19 -32 -2 -74 -8 -95 -12 -50 -11
-66 -6 -53 18 5 10 9 34 8 54 -1 26 6 44 22 61 17 18 25 40 28 79 4 50 8 57
41 79 37 24 37 24 71 6 19 -10 43 -18 53 -19 10 0 46 -9 80 -19 34 -11 73 -22
87 -25 14 -3 45 -23 70 -46 24 -22 48 -40 52 -40 4 0 23 15 41 34 33 36 113
76 150 76 28 0 90 -22 110 -38 8 -7 39 -17 68 -22 98 -16 153 -31 170 -46 19
-17 115 -54 142 -54 10 0 35 -9 57 -20 34 -17 59 -20 189 -20 82 0 152 4 155
9 7 10 -59 28 -137 36 -38 4 -64 13 -75 26 -11 11 -30 18 -48 17 -16 -1 -60 7
-99 17 -73 18 -79 20 -158 54 -26 11 -65 23 -85 26 -20 4 -54 13 -75 21 -20 8
-50 14 -65 14 -15 0 -35 8 -44 19 -8 10 -36 21 -62 25 -25 4 -48 11 -51 17 -4
5 -23 9 -43 9 -21 0 -54 9 -74 20 -37 20 -115 29 -136 16 -6 -3 -13 3 -17 14
-4 13 -18 21 -43 25 -20 3 -68 12 -107 20 -38 8 -81 15 -95 15 -78 0 -148 7
-168 18 -13 8 -86 16 -170 21 -81 4 -154 11 -163 15 -8 4 -17 5 -20 2z m-649
-136 c0 -5 -5 -10 -11 -10 -5 0 -7 5 -4 10 3 6 8 10 11 10 2 0 4 -4 4 -10z
m686 -1 c3 -5 17 -9 31 -9 72 0 206 -24 226 -41 l22 -17 -22 -24 c-13 -13 -23
-31 -23 -40 0 -9 -7 -32 -15 -51 -8 -20 -15 -51 -15 -70 0 -23 -8 -41 -25 -57
-16 -15 -25 -34 -25 -55 0 -17 -6 -40 -14 -50 -13 -18 -18 -18 -81 -7 -77 15
-95 7 -95 -39 0 -16 -4 -29 -10 -29 -5 0 -10 13 -10 29 0 34 -19 44 -59 30
-20 -7 -36 -7 -48 -1 -12 7 -25 7 -36 0 -10 -5 -87 -11 -170 -12 -90 -2 -161
-8 -174 -14 -11 -7 -41 -11 -66 -10 -32 2 -52 -3 -65 -15 -17 -16 -21 -16 -32
-2 -10 12 -37 15 -129 15 -71 0 -121 -4 -128 -11 -15 -15 -119 -14 -137 0 -8
7 -16 34 -18 59 -3 46 -4 47 -35 47 -18 0 -38 6 -44 13 -7 6 -25 12 -40 12
-43 0 -43 17 -1 39 26 13 42 29 46 47 6 23 11 26 35 21 31 -7 99 22 114 48 4
8 15 15 24 15 9 0 37 10 62 21 25 12 55 25 66 29 72 28 105 38 143 45 23 4 42
10 42 14 0 4 35 15 78 24 113 24 131 27 202 32 36 2 79 9 95 14 37 12 323 12
331 0z m-1319 -393 c-14 -18 -29 -45 -32 -59 -7 -27 -46 -47 -92 -47 -48 0
-208 -43 -229 -61 -22 -20 -49 -25 -59 -10 -3 6 2 16 10 23 9 7 24 20 34 29
22 20 76 39 108 39 23 0 197 92 208 110 4 6 22 10 42 10 l35 0 -25 -34z m1604
-76 c25 -14 24 -27 -1 -35 -23 -7 -50 10 -50 31 0 17 24 18 51 4z m-136 -124
c35 -25 4 -43 -78 -44 -41 -1 -89 -8 -108 -16 -52 -21 -102 3 -76 37 9 13 35
17 110 21 54 2 101 7 104 10 10 10 28 7 48 -8z m-1916 -50 c10 -12 9 -20 -3
-38 -22 -34 -13 -204 19 -345 5 -22 4 -33 -4 -33 -6 0 -11 9 -11 19 0 11 -9
26 -20 34 -18 12 -22 29 -26 118 -3 57 -8 122 -11 145 -5 41 17 114 35 114 5
0 15 -6 21 -14z m1832 -59 c-1 -12 -15 -9 -19 4 -3 6 1 10 8 8 6 -3 11 -8 11
-12z m-3271 -86 c0 -12 -29 -23 -41 -15 -18 10 -9 24 16 24 14 0 25 -4 25 -9z
m153 -48 c9 -3 17 -12 17 -21 0 -19 -29 -52 -46 -52 -7 0 -23 -11 -36 -24 -39
-42 -148 -76 -241 -76 -77 0 -81 1 -113 33 -19 17 -34 39 -34 48 0 25 33 49
66 47 35 -2 117 19 161 40 29 15 34 14 65 -2 33 -18 35 -18 74 2 21 12 46 19
54 15 8 -3 23 -8 33 -10z M8860 5943 c-19 -3 -39 -8 -45 -13 -5 -4 -28 -11
-50 -15 -21 -3 -53 -16 -69 -28 -20 -14 -42 -20 -67 -18 -26 1 -50 -6 -76 -23
-21 -13 -60 -27 -87 -31 -26 -4 -70 -20 -96 -36 -26 -16 -52 -29 -58 -29 -6 0
-18 -9 -26 -21 -8 -12 -19 -19 -24 -15 -9 5 -74 -12 -158 -41 -25 -9 -46 -24
-53 -39 -6 -14 -19 -24 -31 -24 -12 0 -31 -11 -43 -24 -13 -14 -36 -28 -52
-32 -73 -18 -123 -70 -108 -111 17 -48 17 -48 188 33 28 13 72 29 100 36 27 6
69 25 92 41 26 17 52 27 63 24 19 -5 123 22 136 36 4 4 20 7 36 7 16 0 54 9
86 19 31 11 97 24 146 29 63 7 96 16 117 31 32 24 42 25 68 10 32 -21 65 -4
79 40 6 23 12 49 12 59 0 10 7 40 16 65 24 72 10 82 -96 70z m-110 -133 c0 -5
-9 -10 -20 -10 -11 0 -20 5 -20 10 0 6 9 10 20 10 11 0 20 -4 20 -10z M11998
5782 c-1 -5 -16 -15 -33 -23 -35 -17 -35 -33 0 -37 20 -3 28 2 32 16 3 11 13
22 24 25 10 3 19 10 19 16 0 13 -37 15 -42 3z M13398 5665 c-15 -14 -37 -25
-49 -25 -12 0 -31 -7 -40 -16 -25 -22 -9 -50 33 -59 18 -4 44 -14 58 -22 22
-12 32 -12 80 4 l55 18 8 54 c11 64 4 71 -68 71 -40 0 -56 -5 -77 -25z M13054
5620 c-28 -4 -120 -8 -204 -8 -127 0 -227 -5 -330 -17 -28 -3 -65 -18 -103
-42 -37 -24 -40 -24 -59 -7 -16 15 -22 16 -36 6 -9 -7 -32 -19 -50 -28 -18 -8
-35 -21 -39 -29 -3 -8 -13 -15 -23 -15 -31 0 -88 -29 -94 -48 -6 -18 -64 -52
-90 -52 -7 0 -18 -11 -24 -25 -6 -14 -17 -25 -25 -25 -17 0 -97 -70 -97 -86 0
-16 -48 -56 -110 -91 -27 -15 -54 -37 -60 -48 -6 -11 -28 -32 -48 -46 -22 -16
-41 -40 -47 -60 -8 -25 -17 -35 -42 -41 -18 -5 -33 -12 -33 -17 0 -5 -13 -11
-28 -14 -17 -4 -33 -16 -40 -32 -7 -14 -28 -35 -47 -46 -19 -12 -35 -25 -35
-29 0 -5 -21 -18 -47 -31 -27 -12 -55 -31 -63 -41 -10 -12 -36 -22 -70 -27
-30 -4 -65 -13 -77 -19 -12 -7 -33 -12 -46 -12 -14 0 -30 -6 -36 -14 -15 -18
59 -23 369 -26 129 0 244 -4 254 -7 19 -5 19 -6 0 -16 -12 -7 -97 -10 -249 -9
-167 2 -258 -1 -332 -13 -57 -8 -129 -15 -162 -15 -39 0 -63 -5 -71 -15 -11
-13 -15 -13 -33 0 -17 12 -58 15 -195 15 -131 0 -181 4 -209 15 -26 11 -75 15
-189 15 -84 0 -155 -4 -158 -9 -9 -14 -118 -21 -206 -11 -78 8 -86 7 -99 -11
-16 -23 -47 -25 -55 -3 -4 10 -12 14 -24 9 -9 -3 -68 -8 -129 -10 -121 -4
-166 -17 -171 -51 -5 -33 18 -42 108 -44 279 -6 2302 2 2384 10 69 6 104 5
117 -3 13 -8 24 -8 44 1 26 12 27 13 10 32 -11 12 -15 28 -12 41 3 12 -3 47
-13 78 -23 63 -25 103 -9 133 6 12 12 48 13 82 2 34 10 75 19 93 9 18 17 39
17 49 0 19 67 106 105 136 15 12 35 41 46 65 15 36 23 43 46 43 16 0 36 9 46
20 9 11 26 20 37 20 11 0 30 10 41 21 20 20 33 22 159 23 87 0 146 -4 161 -11
13 -6 59 -24 103 -40 64 -23 83 -35 103 -65 15 -23 30 -35 39 -31 8 3 14 9 14
14 0 5 5 9 10 9 6 0 10 -13 10 -29 0 -33 44 -76 68 -66 12 4 13 -1 8 -26 -4
-22 -1 -38 9 -49 9 -10 19 -40 24 -68 4 -28 15 -62 24 -76 10 -14 17 -40 17
-58 1 -18 1 -53 2 -78 0 -25 -2 -76 -4 -114 -4 -65 -3 -68 20 -77 25 -10 72
10 72 31 0 12 39 24 67 21 12 -1 35 5 52 13 16 9 46 16 66 16 19 0 35 4 35 9
0 5 14 11 31 15 17 3 42 19 57 35 53 58 82 99 82 115 0 9 14 31 31 49 29 30
31 35 25 86 -4 29 -11 61 -16 71 -13 25 -13 237 0 245 17 11 11 37 -10 42 -20
5 -23 12 -21 48 1 12 -14 37 -33 57 l-36 37 -29 -30 c-31 -31 -39 -33 -116
-29 -50 2 -76 18 -155 93 -30 29 -65 48 -94 52 -11 1 -34 6 -51 10 l-30 8 30
13 c17 7 44 13 61 14 16 0 39 6 50 14 17 13 17 15 2 21 -9 4 -25 2 -36 -4 -11
-6 -21 -9 -23 -7 -11 9 -70 12 -115 6z m176 -196 c0 -8 -4 -14 -10 -14 -5 0
-10 9 -10 21 0 11 5 17 10 14 6 -3 10 -13 10 -21z m-1166 -198 c2 -55 -19 -47
-22 9 -2 39 0 47 9 38 6 -6 12 -27 13 -47z m86 3 c0 -16 -4 -29 -10 -29 -5 0
-10 16 -10 36 0 21 4 33 10 29 6 -3 10 -19 10 -36z m946 -86 c-11 -11 -19 6
-11 24 8 17 8 17 12 0 3 -10 2 -21 -1 -24z m94 15 c0 -16 -3 -19 -11 -11 -6 6
-8 16 -5 22 11 17 16 13 16 -11z m-1630 -302 c-28 -35 -52 -8 -34 39 6 15 9
15 27 -4 17 -17 18 -22 7 -35z M8820 5209 c-19 -11 -51 -19 -70 -19 -25 0 -52
-11 -89 -37 -29 -21 -66 -45 -82 -53 -30 -16 -79 -76 -79 -96 0 -7 -11 -26
-25 -42 -14 -17 -25 -41 -25 -54 0 -13 -7 -48 -16 -77 -11 -38 -14 -76 -10
-141 7 -113 23 -152 73 -178 12 -7 24 -26 28 -42 4 -17 18 -38 33 -48 15 -9
42 -31 59 -49 18 -18 41 -33 51 -33 9 0 26 -6 37 -14 52 -35 125 -49 228 -41
134 9 162 24 283 156 109 118 133 172 134 294 1 87 -12 140 -54 226 -26 55
-43 79 -59 83 -13 3 -27 18 -34 35 -6 17 -24 36 -40 43 -15 7 -34 21 -41 30
-7 10 -21 18 -31 18 -10 0 -35 7 -56 15 -20 9 -45 13 -56 10 -11 -4 -30 2 -48
14 -35 25 -64 25 -111 0z m151 -98 c18 -25 27 -29 54 -24 28 5 39 -1 78 -36
25 -23 49 -41 53 -39 29 8 51 -16 72 -79 13 -38 26 -81 29 -98 10 -53 2 -169
-13 -199 -8 -16 -14 -39 -14 -51 0 -13 -15 -32 -40 -51 -22 -16 -40 -35 -40
-41 0 -7 -13 -19 -29 -27 -15 -8 -34 -28 -40 -44 -11 -27 -18 -30 -74 -37 -34
-3 -80 -6 -102 -6 -22 0 -50 -5 -63 -11 -18 -10 -28 -9 -51 5 -16 9 -41 17
-55 17 -19 0 -47 23 -111 87 -80 82 -85 90 -87 133 -4 109 -5 128 -13 140 -5
8 -10 39 -11 70 -3 48 1 62 21 90 14 19 25 38 25 44 0 17 33 46 52 46 11 0 23
11 28 25 5 14 15 25 22 25 6 0 21 8 32 19 26 23 79 41 103 35 10 -3 43 4 73
14 74 26 76 26 101 -7z M8970 5042 c0 -11 -7 -25 -15 -32 -8 -7 -15 -28 -15
-47 0 -19 -7 -47 -15 -64 -9 -16 -14 -37 -13 -46 3 -20 -22 -28 -58 -19 -19 5
-24 13 -24 40 0 19 -7 41 -15 50 -10 10 -14 28 -12 52 3 20 2 45 0 55 -7 27
-52 24 -97 -6 -20 -14 -43 -25 -51 -25 -11 0 -15 -12 -15 -43 l0 -42 75 -39
c66 -34 75 -42 75 -67 0 -15 5 -31 11 -35 10 -6 63 12 112 37 12 7 17 5 17 -6
0 -8 9 -15 20 -15 13 0 20 7 20 19 0 23 43 53 65 45 11 -5 19 2 28 25 12 32
21 38 32 21 8 -13 55 10 55 27 0 7 -11 18 -24 24 -13 6 -32 29 -42 50 -14 32
-22 39 -46 39 -16 0 -38 5 -49 10 -16 9 -19 7 -19 -8z m30 -108 c0 -8 7 -14
15 -14 17 0 19 -18 5 -40 -8 -13 -10 -13 -10 2 0 10 -9 26 -21 37 -12 11 -18
24 -14 30 8 14 25 4 25 -15z M8580 4765 c-10 -27 5 -181 19 -196 3 -4 23 -10
43 -13 33 -6 40 -3 67 26 57 62 101 128 95 142 -3 9 -25 17 -52 21 -42 5 -93
19 -144 40 -13 5 -20 0 -28 -20z M9155 4775 c-11 -8 -30 -15 -43 -15 -12 0
-40 -9 -62 -20 -22 -11 -52 -20 -67 -20 -67 -1 -69 -42 -3 -60 29 -8 47 -20
58 -41 10 -16 25 -29 37 -29 30 0 49 -16 42 -34 -8 -19 -5 -19 27 -4 36 16 69
74 56 97 -6 12 -5 29 2 49 8 21 9 40 3 58 -12 34 -25 39 -50 19z M8844 4676
c5 -22 -13 -76 -43 -126 -29 -49 -39 -88 -28 -104 16 -20 35 -22 134 -13 79 8
112 24 98 47 -3 5 -21 10 -38 10 -71 0 -102 27 -47 40 28 7 38 28 16 36 -9 3
-16 17 -16 31 0 24 -55 103 -73 103 -5 0 -6 -11 -3 -24z M12471 5204 c-24 -8
-51 -20 -60 -28 -9 -8 -48 -29 -86 -47 -82 -37 -140 -94 -156 -152 -6 -22 -18
-52 -27 -66 -25 -37 -30 -246 -8 -289 9 -17 16 -45 16 -62 0 -23 6 -33 26 -42
14 -7 34 -29 45 -49 10 -21 36 -50 56 -66 21 -15 51 -40 68 -55 40 -39 140
-66 247 -68 101 -1 163 13 178 40 7 13 21 20 39 20 30 0 50 17 75 68 9 18 28
37 41 42 13 5 29 19 36 32 6 13 18 27 25 31 8 4 14 14 14 21 0 8 7 19 15 26 8
7 15 23 15 36 0 13 7 49 15 81 19 72 19 142 -1 168 -8 11 -19 38 -25 60 -6 22
-18 47 -26 57 -8 9 -16 28 -17 42 -4 35 -31 63 -67 71 -17 4 -36 19 -48 39
-23 36 -58 56 -100 56 -20 0 -31 7 -39 24 -10 22 -15 23 -109 23 -54 0 -118
-6 -142 -13z m290 -114 c14 0 89 -66 89 -78 0 -11 9 -13 34 -8 l34 6 4 -64 c3
-46 10 -71 23 -86 17 -19 20 -34 17 -109 -2 -51 -9 -95 -18 -108 -8 -12 -14
-33 -14 -46 0 -29 -35 -77 -56 -77 -8 0 -19 -11 -24 -25 -13 -35 -58 -75 -83
-75 -12 0 -31 -9 -43 -21 -17 -16 -27 -19 -40 -11 -12 6 -27 7 -43 0 -14 -5
-35 -7 -46 -4 -12 3 -45 2 -74 -3 -56 -9 -76 0 -154 65 -16 13 -35 24 -42 24
-7 0 -23 16 -35 35 -12 19 -31 42 -42 50 -17 11 -22 27 -25 75 -1 34 -7 70
-13 80 -13 24 -13 97 -1 105 5 3 15 30 21 61 7 31 20 64 30 74 10 10 21 32 25
49 8 36 26 50 105 82 71 29 173 37 280 22 47 -7 88 -13 91 -13z M12665 5038
c-18 -14 -25 -29 -25 -53 0 -40 47 -135 67 -135 23 0 76 27 112 58 38 32 37
66 -2 78 -12 3 -29 15 -38 26 -9 11 -32 26 -53 33 -32 11 -39 11 -61 -7z
M12418 5032 c-16 -9 -28 -21 -28 -26 0 -6 -14 -25 -32 -43 l-32 -33 23 -24
c14 -14 40 -28 64 -32 56 -9 99 -53 95 -96 -4 -38 -23 -48 -32 -16 l-6 23 -19
-24 c-14 -19 -22 -21 -37 -13 -10 5 -49 13 -85 16 -53 6 -67 4 -72 -7 -3 -7
-1 -20 4 -28 5 -8 9 -33 9 -56 0 -62 15 -90 57 -112 50 -25 73 -14 73 35 0 31
3 35 31 41 22 4 34 14 41 34 12 34 11 34 43 13 22 -14 24 -14 35 5 8 15 8 27
0 42 -19 35 -8 61 33 75 32 11 39 11 44 -1 3 -8 11 -15 19 -15 21 0 17 18 -5
25 -11 3 -23 15 -26 26 -7 20 -25 27 -25 9 0 -5 -16 -10 -35 -10 -32 0 -35 2
-35 30 0 17 7 45 16 61 14 28 14 32 0 48 -9 10 -16 24 -16 32 0 40 -55 51
-102 21z M12680 4780 c0 -5 7 -10 15 -10 8 0 15 5 15 10 0 6 -7 10 -15 10 -8
0 -15 -4 -15 -10z M12837 4762 c-23 -14 -30 -15 -48 -4 -18 11 -24 11 -38 -2
-10 -9 -27 -16 -39 -16 -11 0 -23 -4 -27 -9 -3 -5 -19 -12 -35 -16 -36 -8 -41
-35 -6 -35 13 0 43 -16 66 -35 23 -19 46 -35 51 -35 5 0 9 -7 9 -15 0 -8 11
-22 24 -30 34 -22 75 -10 82 24 3 14 9 45 15 68 12 57 11 97 -3 111 -15 15
-17 15 -51 -6z M12562 4627 c-25 -8 -32 -15 -29 -28 3 -10 -1 -23 -9 -30 -8
-6 -14 -24 -14 -39 0 -19 -6 -29 -20 -33 -13 -3 -20 -14 -20 -30 0 -32 16 -43
36 -26 12 9 20 9 39 -1 20 -11 30 -11 51 -1 22 9 31 9 49 -3 21 -14 24 -13 39
3 21 23 20 34 -4 56 -11 10 -20 26 -20 35 0 21 -43 103 -55 106 -6 1 -25 -3
-43 -9z m28 -97 c0 -19 -11 -26 -23 -14 -8 8 3 34 14 34 5 0 9 -9 9 -20z
M10985 4680 c-10 -17 12 -37 25 -24 8 8 6 15 -4 23 -10 9 -16 9 -21 1z M6612
4658 c-5 -7 -12 -22 -16 -33 -7 -23 -55 -55 -83 -55 -10 0 -33 -16 -52 -35
-23 -24 -43 -35 -63 -35 -35 0 -83 -24 -91 -45 -4 -8 -18 -15 -31 -15 -15 0
-30 -8 -36 -20 -6 -11 -16 -20 -23 -20 -7 0 -23 -9 -35 -20 -12 -11 -26 -20
-32 -20 -15 0 -134 -62 -138 -72 -7 -16 -105 -58 -134 -58 -17 0 -46 -9 -64
-21 -19 -11 -42 -18 -52 -15 -10 3 -33 -2 -53 -12 -19 -10 -89 -30 -154 -46
-66 -15 -138 -33 -160 -40 -55 -15 -522 -15 -595 1 -54 11 -118 25 -210 45
-25 5 -54 11 -65 13 -53 10 -95 24 -116 39 -13 9 -36 16 -51 16 -21 0 -31 7
-37 24 -10 25 -44 36 -108 36 -31 0 -34 2 -22 16 10 13 10 17 -2 25 -8 5 -21
9 -29 9 -9 0 -26 7 -39 17 -19 13 -28 14 -42 4 -17 -10 -19 -8 -19 12 0 24
-28 50 -89 82 -33 17 -35 17 -48 -1 -18 -24 -17 -26 16 -63 16 -18 34 -53 40
-78 7 -25 23 -67 36 -94 14 -27 25 -60 25 -75 0 -14 9 -37 20 -51 11 -14 20
-38 20 -53 0 -15 10 -36 25 -50 23 -22 65 -129 65 -168 0 -11 7 -25 15 -32 8
-7 15 -22 15 -34 0 -12 7 -31 15 -42 8 -10 15 -33 15 -51 0 -21 7 -36 19 -42
12 -7 20 -26 25 -60 3 -27 13 -54 21 -61 8 -6 17 -32 21 -56 6 -41 20 -66 41
-76 17 -7 61 -85 68 -118 4 -19 14 -43 22 -52 9 -10 13 -27 10 -39 -4 -14 3
-38 18 -63 12 -23 26 -55 30 -73 3 -18 15 -43 26 -57 10 -13 22 -47 26 -76 7
-49 11 -53 43 -64 35 -11 35 -12 45 -86 13 -99 35 -125 97 -117 30 4 48 1 59
-9 14 -13 73 -14 464 -4 246 5 470 7 499 4 65 -8 123 16 107 44 -7 12 -2 25
20 50 16 18 29 39 29 47 0 8 5 15 10 15 6 0 22 26 36 58 24 53 32 80 54 185 4
22 17 52 28 67 12 15 31 59 43 96 12 38 28 78 34 89 7 11 23 49 34 85 12 36
26 72 31 81 5 9 12 34 16 55 3 22 12 50 19 64 39 75 55 112 55 128 0 9 12 42
26 72 14 30 33 75 41 100 8 25 30 74 48 110 18 36 36 80 40 98 3 18 15 36 24
42 12 6 20 25 23 55 3 25 13 54 22 64 9 9 19 39 22 65 5 31 13 50 26 57 13 7
17 16 12 35 -5 18 -1 31 15 45 13 13 21 32 21 53 0 19 7 39 15 46 8 7 15 23
15 36 0 12 5 26 10 29 6 3 17 19 25 35 14 28 14 31 -5 50 -23 23 -34 25 -48 8z
m-327 -288 c3 -5 -3 -10 -14 -10 -12 0 -21 5 -21 10 0 6 6 10 14 10 8 0 18 -4
21 -10z m-2132 -247 c-7 -2 -19 -2 -25 0 -7 3 -2 5 12 5 14 0 19 -2 13 -5z
m97 -263 c0 -5 -2 -10 -4 -10 -3 0 -8 5 -11 10 -3 6 -1 10 4 10 6 0 11 -4 11
-10z m-3 -152 c-3 -7 -5 -2 -5 12 0 14 2 19 5 13 2 -7 2 -19 0 -25z m1871
-326 c2 -7 -3 -12 -12 -12 -9 0 -16 7 -16 16 0 17 22 14 28 -4z m-280 -654
c-2 -13 -10 -23 -18 -23 -8 0 -16 10 -18 23 -3 17 2 22 18 22 16 0 21 -5 18
-22z M10615 4640 c-4 -6 10 -10 34 -10 23 0 41 5 41 10 0 6 -15 10 -34 10 -19
0 -38 -4 -41 -10z M7930 4391 c0 -10 7 -24 15 -31 11 -9 14 -22 10 -41 -5 -21
0 -38 19 -66 14 -21 26 -47 26 -58 0 -11 9 -33 20 -50 11 -16 20 -35 20 -42 0
-7 14 -32 30 -56 17 -25 30 -56 30 -70 0 -31 76 -197 91 -197 5 0 15 -13 20
-29 6 -16 17 -32 25 -35 8 -3 14 -16 14 -28 0 -13 9 -31 20 -41 11 -9 20 -23
20 -30 0 -7 16 -31 35 -53 19 -21 35 -42 35 -46 0 -12 64 -75 84 -82 12 -4 17
-13 13 -25 -5 -21 17 -61 35 -61 10 0 52 -38 166 -151 26 -25 62 -67 80 -93
17 -26 40 -49 50 -53 9 -3 24 -12 32 -18 8 -7 27 -15 42 -19 15 -3 30 -15 33
-26 3 -11 14 -20 24 -20 27 0 71 -38 71 -61 0 -14 9 -21 30 -26 17 -3 35 -14
41 -24 5 -11 18 -19 28 -19 10 0 24 -6 30 -14 6 -7 24 -16 39 -19 15 -3 59
-26 97 -51 39 -25 79 -46 90 -46 22 0 188 -79 193 -92 2 -4 14 -8 26 -8 21 0
60 -10 176 -45 30 -9 78 -20 105 -25 28 -5 86 -16 130 -24 104 -19 103 -19
110 5 9 26 30 19 30 -10 1 -51 13 -52 380 -46 424 7 438 8 470 29 20 13 30 15
40 6 9 -7 20 -8 32 -2 37 19 120 45 173 54 30 5 69 16 85 23 17 7 44 17 60 21
17 4 48 15 70 25 22 10 51 19 64 19 13 0 39 13 57 30 19 16 47 32 62 35 15 3
43 14 62 24 20 11 47 17 61 14 22 -4 31 2 57 43 18 26 32 53 32 60 0 7 11 2
25 -12 20 -20 28 -22 43 -13 10 6 23 21 28 33 6 14 20 22 44 24 29 3 40 11 62
46 15 23 30 50 34 59 6 16 33 29 66 32 28 3 87 52 203 170 61 62 119 115 130
119 32 10 85 64 85 85 0 11 13 30 29 44 27 22 81 119 81 145 0 6 14 15 32 20
25 6 34 15 41 43 5 18 15 41 23 50 8 8 14 20 14 26 0 6 16 37 35 69 19 32 35
65 35 75 0 9 7 22 15 29 27 22 129 214 127 236 -2 12 8 38 22 59 34 49 35 85
2 85 -13 0 -29 -7 -36 -15 -7 -8 -19 -15 -27 -15 -8 0 -26 -9 -40 -20 -14 -11
-34 -20 -43 -20 -10 0 -23 -7 -30 -15 -10 -12 -8 -18 11 -34 l24 -19 -29 -13
c-26 -12 -30 -12 -43 7 -13 20 -20 21 -167 16 -163 -5 -199 2 -303 58 -21 11
-45 20 -54 20 -9 0 -36 19 -60 43 -82 79 -91 82 -216 85 -121 2 -143 -6 -143
-51 0 -12 -18 -44 -40 -71 -22 -26 -40 -52 -40 -56 0 -5 -11 -22 -25 -38 -14
-17 -40 -56 -58 -88 -18 -32 -42 -63 -52 -69 -49 -26 -106 -67 -112 -80 -3 -8
-11 -15 -17 -15 -22 0 -80 -60 -101 -103 -16 -34 -25 -42 -48 -42 -18 -1 -36
-11 -50 -27 -12 -15 -38 -30 -57 -33 -31 -7 -67 -23 -134 -62 -11 -7 -29 -13
-38 -13 -9 0 -37 -13 -61 -30 -26 -18 -58 -30 -76 -30 -18 0 -43 -8 -57 -17
-27 -17 -135 -32 -289 -39 -118 -5 -183 -10 -221 -19 -27 -6 -33 -4 -38 13 -5
15 -15 21 -39 20 -18 0 -57 6 -87 12 -30 6 -68 12 -85 13 -35 3 -99 30 -109
46 -4 6 -20 11 -35 11 -16 0 -40 9 -54 20 -14 12 -66 41 -114 66 -48 25 -95
52 -103 59 -8 7 -33 22 -56 33 -23 12 -48 31 -56 44 -9 13 -50 40 -91 62 -65
32 -77 43 -83 70 -3 17 -19 46 -35 64 -16 18 -29 36 -29 40 0 4 -16 24 -35 45
-25 27 -42 37 -64 37 -35 0 -39 7 -14 25 15 11 15 17 5 40 -12 25 -16 27 -55
21 -23 -4 -49 -13 -58 -21 -8 -8 -21 -15 -28 -15 -6 0 -29 -9 -51 -20 -34 -17
-54 -20 -157 -16 -151 5 -233 20 -253 46 -10 13 -22 18 -36 14 -15 -4 -26 1
-36 14 -7 11 -32 30 -55 42 -23 11 -44 28 -47 36 -3 8 -16 14 -30 14 -15 0
-27 7 -30 18 -5 13 -25 21 -84 30 -42 7 -94 12 -115 12 -21 0 -54 8 -75 18
-24 12 -46 16 -62 12 -14 -4 -40 -1 -59 7 -49 19 -81 17 -81 -6z m4000 -91 c0
-5 -5 -10 -11 -10 -5 0 -7 5 -4 10 3 6 8 10 11 10 2 0 4 -4 4 -10z m-3860
-100 c0 -11 -4 -20 -10 -20 -5 0 -10 9 -10 20 0 11 5 20 10 20 6 0 10 -9 10
-20z m365 -60 c0 -7 -6 -15 -12 -17 -8 -3 -13 4 -13 17 0 13 5 20 13 18 6 -3
12 -11 12 -18z m3837 -5 c0 -5 -5 -11 -11 -13 -6 -2 -11 4 -11 13 0 9 5 15 11
13 6 -2 11 -8 11 -13z m-4142 -30 c0 -19 -20 -29 -32 -17 -8 8 -7 16 2 26 14
17 30 12 30 -9z m4666 -186 c10 -17 -13 -36 -27 -22 -12 12 -4 33 11 33 5 0
12 -5 16 -11z m-1201 -59 c3 -5 -3 -10 -15 -10 -12 0 -18 5 -15 10 3 6 10 10
15 10 5 0 12 -4 15 -10z m-3315 -105 c0 -8 -4 -17 -10 -20 -6 -4 -10 5 -10 20
0 15 4 24 10 20 6 -3 10 -12 10 -20z m3220 -34 c0 -12 -20 -25 -27 -18 -7 7 6
27 18 27 5 0 9 -4 9 -9z m-12 -99 c2 -7 -7 -12 -23 -12 -24 0 -26 2 -15 15 14
17 31 16 38 -3z m-1378 -163 c0 -5 -7 -9 -15 -9 -15 0 -20 12 -9 23 8 8 24 -1
24 -14z m180 -59 c0 -5 -4 -10 -10 -10 -5 0 -10 5 -10 10 0 6 5 10 10 10 6 0
10 -4 10 -10z m1745 -300 c-3 -5 -10 -10 -16 -10 -5 0 -9 5 -9 10 0 6 7 10 16
10 8 0 12 -4 9 -10z m-3075 -47 c0 -14 -34 -43 -52 -43 -18 0 -26 29 -11 43 8
9 63 9 63 0z M5582 1870 c-51 -5 -71 -19 -72 -47 0 -7 -11 -13 -25 -13 -27 0
-114 -61 -130 -91 -6 -11 -21 -26 -33 -35 -12 -8 -22 -20 -22 -26 0 -7 -9 -31
-21 -55 -46 -95 -35 -243 28 -371 41 -81 80 -116 224 -198 32 -18 207 -28 226
-13 8 7 33 14 55 14 29 1 46 8 58 22 9 12 32 26 51 31 31 8 34 12 31 40 -3 28
0 32 22 32 35 0 36 37 1 46 -13 3 -27 14 -30 24 -9 27 -29 31 -63 12 -17 -9
-48 -27 -69 -39 -60 -33 -149 -40 -229 -17 -37 11 -68 24 -69 29 -2 6 -6 21
-9 35 -3 14 -19 39 -35 57 -29 32 -61 87 -61 105 0 5 7 16 15 25 14 14 14 18
0 39 -23 35 -18 57 15 76 18 10 30 25 30 37 0 11 11 32 24 46 14 15 26 30 28
33 2 4 32 17 68 29 104 35 225 15 263 -44 15 -24 62 -14 100 20 44 38 46 59
12 81 -14 10 -31 28 -37 40 -10 24 -46 46 -74 46 -8 0 -31 7 -52 16 -39 17
-131 23 -220 14z m-72 -740 c0 -5 -2 -10 -4 -10 -3 0 -8 5 -11 10 -3 6 -1 10
4 10 6 0 11 -4 11 -10z M8310 1871 c-36 -3 -71 -10 -78 -14 -7 -5 -25 -10 -39
-12 -14 -1 -30 -10 -35 -19 -5 -9 -14 -16 -20 -16 -6 0 -22 -11 -37 -25 -14
-14 -49 -47 -77 -73 -34 -31 -54 -59 -59 -82 -4 -19 -14 -44 -22 -56 -8 -13
-15 -60 -18 -127 -5 -119 5 -155 54 -205 21 -21 28 -36 24 -51 -4 -17 1 -24
28 -35 19 -8 49 -30 67 -50 18 -20 41 -36 52 -36 10 0 31 -11 46 -25 25 -24
33 -25 139 -25 137 0 205 17 235 60 12 17 30 30 42 30 20 0 78 47 78 65 0 5
11 18 25 30 20 16 25 30 26 75 2 30 9 65 17 78 21 33 22 111 1 153 -10 21 -18
50 -19 65 0 69 -6 96 -21 105 -9 5 -20 20 -23 33 -3 14 -17 31 -30 38 -14 7
-45 30 -70 52 -37 31 -55 39 -90 40 -26 1 -52 8 -63 19 -20 18 -24 18 -133 8z
m115 -161 c6 -19 33 -30 78 -30 21 0 30 -7 38 -27 6 -16 21 -39 33 -53 13 -14
24 -32 24 -40 1 -8 2 -50 3 -93 1 -50 7 -81 15 -88 20 -16 17 -29 -5 -29 -22
0 -36 -15 -46 -50 -10 -34 -92 -110 -118 -110 -11 0 -31 -9 -43 -21 -18 -17
-26 -19 -42 -10 -14 8 -29 8 -47 1 -26 -10 -72 -13 -47 -3 39 15 -13 56 -68
52 -45 -2 -50 1 -50 29 0 16 -9 37 -19 46 -11 10 -20 25 -19 34 0 10 -3 63 -6
120 -3 60 -1 114 5 130 6 15 33 51 62 80 40 40 58 52 82 52 17 0 40 6 50 14
11 7 40 14 67 14 37 0 49 -4 53 -18z m-275 -10 c0 -5 -4 -10 -10 -10 -5 0 -10
5 -10 10 0 6 5 10 10 10 6 0 10 -4 10 -10z M19917 1854 c-16 -19 -23 -20 -47
-11 -27 10 -32 8 -82 -39 -29 -28 -65 -58 -80 -68 -16 -10 -28 -27 -28 -37 0
-10 -7 -22 -14 -26 -21 -11 -67 -199 -57 -226 5 -12 9 -48 10 -80 1 -84 58
-201 107 -222 19 -8 34 -21 34 -29 0 -20 60 -58 130 -82 46 -16 74 -18 171
-14 111 5 119 7 160 36 24 17 53 34 65 38 32 10 102 77 114 109 5 16 7 40 4
53 -5 20 -2 26 15 31 11 3 21 8 22 12 2 20 9 62 18 106 10 52 -5 143 -34 210
-8 17 -16 44 -20 60 -7 36 -60 91 -98 100 -15 4 -27 11 -27 16 0 5 -15 16 -32
25 -18 9 -40 24 -48 34 -13 16 -34 19 -140 22 -117 3 -126 2 -143 -18z m333
-124 c0 -5 -4 -10 -10 -10 -5 0 -10 5 -10 10 0 6 5 10 10 10 6 0 10 -4 10 -10z
m-134 -31 c84 -26 138 -76 148 -140 4 -23 16 -53 26 -67 25 -31 25 -72 1 -104
-11 -13 -23 -41 -27 -62 -4 -25 -20 -52 -45 -77 -45 -45 -58 -52 -129 -68 -47
-11 -64 -10 -115 4 -33 9 -73 20 -89 24 -24 5 -36 20 -67 81 -21 41 -41 93
-44 115 -8 49 17 162 48 219 26 49 34 56 68 56 14 0 29 4 35 9 8 8 78 27 110
30 7 1 42 -8 80 -20z m-353 -25 c3 -3 3 -12 0 -20 -6 -17 -39 -19 -49 -3 -11
18 33 39 49 23z m-53 -378 c0 -8 -4 -18 -10 -21 -5 -3 -10 3 -10 14 0 12 5 21
10 21 6 0 10 -6 10 -14z M2333 1863 c-64 -6 -72 -24 -40 -87 15 -29 27 -63 27
-74 0 -12 9 -41 19 -64 10 -24 29 -68 42 -98 13 -30 29 -62 36 -71 7 -8 13
-23 13 -33 0 -9 11 -21 25 -26 23 -9 24 -12 13 -30 -11 -18 -10 -23 11 -39 19
-15 22 -21 13 -38 -9 -17 -7 -24 9 -39 13 -12 18 -26 15 -41 -4 -13 -1 -25 7
-30 20 -12 49 -73 52 -111 4 -36 41 -75 65 -66 8 4 42 9 75 13 72 8 85 15 85
45 0 13 7 29 15 36 8 7 15 28 15 46 0 20 8 42 20 54 21 21 70 156 70 194 0 13
7 29 15 36 8 7 15 20 15 29 0 9 7 30 16 46 53 96 74 142 74 160 0 11 14 46 31
78 19 36 28 65 24 77 -8 24 -50 37 -69 21 -7 -6 -30 -10 -52 -8 -38 2 -39 1
-49 -41 -6 -24 -17 -47 -24 -51 -7 -5 -16 -23 -21 -42 -16 -64 -54 -164 -72
-191 -10 -14 -18 -33 -18 -42 0 -9 -11 -33 -24 -54 -14 -20 -28 -55 -31 -77
-11 -64 -15 -75 -33 -75 -11 0 -26 19 -42 51 -13 28 -30 53 -37 56 -9 4 -12
15 -7 37 6 34 -4 48 -50 71 -18 9 -21 18 -18 61 3 43 -1 55 -22 81 -14 17 -26
43 -26 58 0 14 -12 47 -27 73 -26 47 -82 113 -92 110 -4 -1 -25 -3 -48 -5z
m109 -260 c23 -21 23 -43 -1 -43 -24 0 -43 23 -35 44 8 20 13 20 36 -1z m318
-423 c0 -5 -4 -10 -10 -10 -5 0 -10 5 -10 10 0 6 5 10 10 10 6 0 10 -4 10 -10z
M3638 1864 c-4 -3 -98 -5 -210 -5 -111 0 -209 -3 -216 -8 -12 -7 -12 -12 -1
-30 12 -17 12 -25 1 -42 -11 -16 -13 -83 -12 -293 2 -279 7 -437 16 -445 12
-13 137 -16 358 -9 131 4 240 9 243 12 3 3 6 29 7 58 1 51 0 54 -34 70 -29 14
-43 16 -73 7 -21 -6 -53 -7 -70 -3 -17 3 -87 6 -155 6 -109 -1 -122 0 -112 14
8 9 13 46 13 98 -1 95 5 113 33 98 22 -11 172 -13 179 -2 2 3 28 5 58 2 32 -2
63 1 76 8 20 10 22 17 16 53 -10 58 -20 67 -74 66 -25 0 -55 0 -66 1 -11 0
-60 -1 -109 -2 -71 -2 -94 0 -110 13 -17 14 -19 20 -9 42 12 27 7 93 -9 114
-9 11 57 19 217 26 33 2 66 6 73 11 8 4 33 3 58 -4 58 -17 76 -3 71 54 -4 38
-7 43 -58 68 -52 26 -90 34 -101 22z m-285 -87 c-3 -5 -10 -4 -15 1 -6 6 -7
16 -3 22 6 9 9 9 16 -1 4 -7 5 -17 2 -22z M4050 1858 c-48 -13 -51 -18 -55
-84 -8 -137 -3 -750 5 -758 6 -6 15 -3 24 10 12 15 17 17 27 6 18 -16 44 -15
59 3 12 14 15 14 30 0 13 -12 20 -13 25 -5 11 18 7 160 -5 175 -8 10 -8 15 0
20 7 4 9 16 7 27 -3 11 -1 31 5 44 9 19 8 28 -7 44 -10 11 -15 23 -11 28 4 4
76 10 159 13 84 3 157 7 162 9 6 3 25 -2 43 -9 31 -13 33 -17 27 -45 -3 -17
-6 -38 -5 -46 0 -8 3 -67 5 -130 3 -63 7 -121 10 -127 5 -15 132 -18 153 -5
17 12 6 36 -24 53 l-25 13 26 14 c18 9 25 19 21 29 -4 9 -2 21 4 28 7 9 11
102 9 277 -1 299 -2 316 -14 342 -5 11 -4 26 4 38 19 31 4 38 -75 38 -62 0
-76 -3 -80 -17 -3 -10 -10 -26 -15 -35 -12 -23 -12 -121 0 -133 8 -9 16 -85
12 -126 -1 -20 -60 -38 -89 -28 -12 5 -35 4 -52 -3 -17 -5 -45 -7 -63 -4 -18
4 -41 7 -52 7 -11 0 -43 3 -71 5 -59 6 -77 28 -62 79 10 37 13 229 4 244 -5 8
-13 8 -26 1 -13 -7 -21 -6 -30 5 -14 17 -12 17 -60 3z m70 -112 c-15 -15 -33
4 -19 20 10 12 14 12 20 2 5 -7 4 -17 -1 -22z m-40 -16 c0 -5 -5 -10 -11 -10
-5 0 -7 5 -4 10 3 6 8 10 11 10 2 0 4 -4 4 -10z m50 -369 c0 -12 -29 -23 -41
-15 -18 10 -9 24 16 24 14 0 25 -4 25 -9z m-7 -224 c3 -8 1 -20 -4 -28 -8 -12
-10 -12 -18 0 -10 15 -4 41 9 41 4 0 10 -6 13 -13z M4934 1859 c-14 -24 -31
-154 -23 -179 5 -14 7 -131 4 -260 -2 -129 -4 -246 -4 -260 1 -58 0 -66 -6
-91 -6 -25 -4 -26 42 -33 26 -3 59 -9 73 -12 14 -3 33 1 44 9 17 12 19 27 17
148 -2 172 -3 307 -1 369 1 19 2 85 3 145 l2 110 -32 34 c-28 29 -35 32 -48
21 -12 -10 -19 -10 -27 -2 -15 15 -35 15 -44 1z m66 -150 c0 -10 -7 -19 -15
-19 -15 0 -21 31 -9 43 11 10 24 -3 24 -24z M6172 1846 c-22 -24 -25 -71 -25
-411 1 -404 0 -383 25 -396 14 -8 111 -13 281 -15 232 -4 262 -2 279 12 21 19
23 51 7 103 l-11 36 -193 0 c-116 0 -198 4 -204 10 -10 11 -15 510 -6 601 7
65 -8 79 -82 79 -40 0 -59 -5 -71 -19z M13644 1859 c-90 -16 -121 -29 -132
-54 -6 -13 -26 -31 -44 -38 -18 -8 -47 -30 -64 -48 -17 -19 -40 -39 -50 -46
-18 -11 -18 -12 2 -12 26 -1 51 -28 38 -41 -5 -4 -22 -10 -39 -12 l-30 -3 -1
-125 c-1 -69 -2 -129 -4 -135 -5 -21 1 -35 29 -68 19 -22 29 -44 29 -63 -1
-34 62 -104 93 -104 12 0 23 -10 29 -25 10 -26 24 -32 35 -14 5 6 13 2 22 -11
8 -11 22 -20 31 -19 10 2 33 -5 54 -13 35 -16 125 -17 213 -3 53 9 156 67 167
94 5 14 25 39 44 54 19 16 34 35 34 42 0 8 11 35 25 62 30 55 32 120 4 115 -9
-1 -19 4 -23 13 -6 17 2 45 14 45 12 0 40 59 40 82 0 11 -9 33 -20 48 -11 16
-22 42 -24 59 -2 17 -10 39 -17 48 -30 38 -94 103 -103 103 -5 0 -33 16 -63
36 -51 34 -58 35 -151 38 -53 1 -116 -1 -138 -5z m206 -79 c0 -5 -6 -10 -14
-10 -8 0 -18 5 -21 10 -3 6 3 10 14 10 12 0 21 -4 21 -10z m-11 -86 c27 -15
68 -46 89 -69 38 -42 39 -44 46 -145 5 -85 4 -106 -9 -120 -8 -9 -15 -29 -15
-44 0 -15 -6 -40 -14 -54 -8 -15 -17 -35 -20 -44 -4 -14 -16 -18 -50 -18 -31
0 -51 -6 -63 -19 -11 -11 -38 -20 -65 -23 -41 -5 -48 -3 -54 14 -4 14 -12 18
-26 15 -11 -3 -27 1 -35 9 -8 8 -22 14 -32 14 -26 0 -75 59 -97 115 -25 67
-26 169 -2 217 10 21 18 43 18 50 0 20 62 84 88 93 13 4 34 8 46 9 12 2 31 8
42 14 34 20 99 14 153 -14z m-444 -154 c-3 -5 -13 -10 -21 -10 -8 0 -14 5 -14
10 0 6 9 10 21 10 11 0 17 -4 14 -10z m610 -217 l-7 -28 -9 24 c-12 31 -3 59
13 43 6 -6 8 -22 3 -39z m-55 -193 c0 -5 -4 -10 -10 -10 -5 0 -10 5 -10 10 0
6 5 10 10 10 6 0 10 -4 10 -10z m-95 -40 c3 -5 1 -10 -4 -10 -6 0 -11 5 -11
10 0 6 2 10 4 10 3 0 8 -4 11 -10z M14941 1861 c-7 -5 -23 -6 -37 -3 -23 4
-24 2 -25 -44 0 -27 -3 -71 -5 -99 -2 -27 -4 -57 -5 -65 0 -8 2 -79 5 -157 7
-145 2 -168 -29 -143 -9 7 -15 29 -15 51 0 26 -4 39 -14 39 -7 0 -27 14 -44
30 -18 17 -39 30 -47 30 -9 0 -21 14 -27 30 -5 17 -18 35 -29 40 -10 6 -24 28
-30 50 -7 22 -23 49 -35 61 -13 13 -24 27 -24 34 0 16 -58 47 -72 39 -8 -5 -9
2 -5 23 8 43 -11 63 -69 74 -54 10 -89 -1 -96 -30 -2 -9 -1 -61 2 -116 4 -69
2 -112 -7 -138 -10 -30 -10 -44 -1 -60 8 -15 11 -86 10 -231 -2 -222 0 -236
44 -236 14 0 33 -5 44 -12 13 -9 27 -9 47 -2 27 9 28 11 28 84 0 89 -15 113
-65 104 -19 -4 -30 -2 -30 5 0 6 10 11 23 11 50 1 57 18 61 154 4 144 12 163
51 126 14 -13 23 -30 21 -37 -3 -7 4 -19 15 -26 11 -6 31 -36 45 -65 16 -34
34 -56 50 -62 14 -6 30 -22 37 -37 28 -64 82 -127 119 -139 15 -5 18 -12 13
-35 -5 -22 -3 -29 9 -29 9 0 16 6 16 14 0 20 19 31 33 17 7 -7 7 -17 -1 -35
-8 -18 -8 -28 3 -43 12 -16 17 -16 45 -6 24 9 37 9 50 1 9 -6 25 -8 34 -5 21
8 20 80 -1 115 -10 16 -11 27 -4 36 6 6 12 111 16 241 3 127 8 258 11 292 3
40 0 70 -8 82 -9 15 -9 23 1 35 17 21 4 39 -24 32 -13 -3 -34 -2 -48 3 -13 5
-29 6 -36 2z m-11 -63 c0 -16 -3 -19 -11 -11 -6 6 -8 16 -5 22 11 17 16 13 16
-11z m-500 -693 c0 -14 -4 -25 -10 -25 -5 0 -10 11 -10 25 0 14 5 25 10 25 6
0 10 -11 10 -25z m560 -15 c0 -5 -4 -10 -9 -10 -6 0 -13 5 -16 10 -3 6 1 10 9
10 9 0 16 -4 16 -10z M15500 1848 c-10 -11 -22 -38 -25 -59 -4 -22 -13 -42
-20 -46 -26 -16 -47 -75 -41 -114 6 -36 5 -38 -21 -36 -26 2 -28 -1 -31 -40
-2 -23 -10 -47 -18 -53 -7 -7 -14 -19 -14 -26 0 -8 -16 -39 -36 -69 -19 -31
-37 -68 -40 -83 -12 -72 -43 -165 -57 -174 -10 -5 -17 -22 -17 -40 0 -17 -7
-39 -16 -49 -11 -12 -12 -19 -4 -24 7 -4 14 2 17 14 7 28 21 27 33 -4 12 -32
37 -32 52 0 13 30 38 33 38 6 0 -68 60 16 62 85 0 24 7 49 15 55 7 7 46 14 86
16 40 2 113 6 162 9 50 3 108 2 130 -3 34 -7 41 -13 45 -38 3 -17 13 -46 22
-65 9 -19 19 -43 22 -52 3 -10 13 -18 22 -18 10 0 25 -7 35 -16 16 -14 18 -14
30 7 11 22 12 22 25 4 12 -16 17 -17 39 -5 29 15 34 60 10 80 -8 7 -15 20 -15
30 0 10 -7 20 -15 24 -9 3 -15 18 -15 39 0 21 -7 41 -19 51 -11 10 -23 32 -26
50 -4 17 -13 41 -21 53 -7 12 -18 43 -24 68 -14 63 -37 115 -49 115 -6 0 -11
7 -11 15 0 9 -11 37 -25 63 -14 26 -25 52 -25 59 0 7 -11 29 -25 49 -14 20
-25 45 -25 55 0 52 -46 97 -81 79 -14 -8 -34 -8 -65 -2 -40 9 -48 7 -64 -10z
m104 -180 c9 -12 16 -35 16 -51 0 -16 9 -40 20 -54 11 -14 20 -31 20 -37 0
-24 41 -92 76 -128 l37 -37 -29 -8 c-33 -9 -259 -7 -274 2 -14 8 -13 60 2 88
6 12 14 29 18 37 4 8 15 14 24 12 13 -2 16 6 16 37 0 27 8 48 24 68 17 21 22
36 19 61 -6 37 9 42 31 10z m-134 -53 c0 -14 -4 -25 -10 -25 -11 0 -14 33 -3
43 11 11 13 8 13 -18z m-30 -132 c0 -28 -3 -34 -10 -23 -13 20 -13 60 0 60 6
0 10 -17 10 -37z m488 -301 c2 -7 -3 -12 -12 -12 -9 0 -16 7 -16 16 0 17 22
14 28 -4z m19 -54 c-3 -7 -5 -2 -5 12 0 14 2 19 5 13 2 -7 2 -19 0 -25z m-621
-25 c-7 -17 -8 -17 -17 0 -12 21 -2 44 13 29 6 -6 8 -19 4 -29z m594 -24 c0
-11 -4 -17 -10 -14 -5 3 -10 15 -10 26 0 11 5 17 10 14 6 -3 10 -15 10 -26z
M18090 1862 c-34 -5 -52 -21 -45 -42 3 -9 -3 -24 -15 -35 -20 -18 -27 -45 -12
-45 4 0 14 -5 22 -10 13 -8 12 -11 -4 -23 -18 -13 -20 -26 -16 -163 3 -147 3
-227 0 -314 -1 -55 9 -118 21 -126 5 -3 2 -19 -7 -36 -10 -19 -12 -33 -6 -37
12 -7 414 -6 514 2 36 2 71 7 76 11 17 10 20 69 6 104 l-13 32 -179 0 c-147 0
-182 -3 -192 -15 -7 -8 -18 -15 -25 -15 -16 0 -27 28 -18 43 4 7 6 42 4 79 -4
109 -6 108 170 108 146 0 151 1 174 25 14 13 25 29 25 35 0 20 -29 68 -45 74
-9 3 -82 6 -161 6 l-144 0 -11 27 c-5 15 -9 54 -8 87 0 34 -2 68 -5 77 -10 22
25 35 39 15 9 -11 45 -15 181 -17 94 -1 175 0 180 4 13 8 10 115 -3 128 -6 6
-85 12 -189 15 -99 2 -204 6 -234 7 -30 2 -66 1 -80 -1z m43 -139 c-7 -2 -19
-2 -25 0 -7 3 -2 5 12 5 14 0 19 -2 13 -5z m-18 -633 c3 -5 1 -10 -4 -10 -6 0
-11 5 -11 10 0 6 2 10 4 10 3 0 8 -4 11 -10z M20763 1863 c-155 -4 -157 -6
-147 -144 3 -52 7 -119 9 -149 1 -30 5 -68 8 -85 4 -18 1 -40 -7 -53 -15 -28
0 -102 21 -102 7 0 13 -7 13 -16 0 -10 -6 -14 -15 -10 -10 4 -15 -1 -16 -17
-3 -63 -7 -117 -14 -163 -11 -78 2 -94 73 -89 31 2 63 4 69 4 17 1 45 58 39
79 -3 9 -2 40 3 69 l8 51 -35 -5 c-27 -5 -34 -3 -30 8 2 8 14 15 26 17 12 2
22 10 22 18 0 20 39 18 63 -3 17 -17 20 -17 31 -1 23 32 144 -1 130 -35 -2 -7
12 -37 32 -67 20 -30 44 -75 53 -100 13 -35 21 -45 39 -44 12 0 48 1 81 2 l59
2 -3 47 c-2 37 -8 49 -26 59 -17 8 -27 27 -34 61 -9 41 -16 51 -48 68 -20 11
-37 25 -37 30 0 6 25 23 55 38 30 15 55 31 55 36 0 4 14 25 30 46 29 37 30 40
30 150 l0 112 -35 31 c-19 18 -41 45 -49 61 -16 29 -85 70 -135 79 -14 2 -55
6 -91 7 -36 2 -74 5 -85 7 -11 2 -75 3 -142 1z m197 -79 c0 -2 -16 -4 -36 -4
-19 0 -33 4 -30 8 5 8 66 4 66 -4z m98 -90 c12 -8 22 -20 22 -25 0 -6 9 -22
20 -36 27 -35 28 -116 1 -135 -10 -7 -20 -22 -22 -33 -6 -30 -107 -52 -167
-36 -38 10 -46 9 -56 -5 -16 -21 -73 -16 -66 6 3 8 6 72 8 142 3 109 5 127 20
131 9 3 62 5 117 6 76 1 106 -3 123 -15z m-398 -294 c0 -5 -5 -10 -11 -10 -5
0 -7 5 -4 10 3 6 8 10 11 10 2 0 4 -4 4 -10z m220 1 c0 -6 -4 -13 -10 -16 -5
-3 -10 1 -10 9 0 9 5 16 10 16 6 0 10 -4 10 -9z m10 -73 c0 -31 -20 -30 -50 2
-35 38 -35 37 -12 42 22 5 61 -22 62 -44z m-183 36 c-3 -3 -12 -4 -19 -1 -8 3
-5 6 6 6 11 1 17 -2 13 -5z m73 -49 c0 -8 -7 -15 -15 -15 -8 0 -15 7 -15 15 0
8 7 15 15 15 8 0 15 -7 15 -15z m-68 -107 c-9 -9 -15 -9 -24 0 -9 9 -7 12 12
12 19 0 21 -3 12 -12z m488 -138 c0 -5 -4 -10 -9 -10 -6 0 -13 5 -16 10 -3 6
1 10 9 10 9 0 16 -4 16 -10z M6852 1837 l-23 -25 22 -21 c23 -21 23 -22 5 -52
-16 -27 -17 -58 -15 -355 2 -209 7 -331 13 -340 9 -12 59 -15 260 -20 284 -6
323 -2 336 30 7 20 -3 113 -14 124 -2 2 -87 4 -187 3 -100 0 -190 4 -199 9
-13 7 -18 31 -24 106 -8 114 0 133 44 107 24 -14 33 -14 59 -3 27 11 34 10 50
-4 13 -12 38 -16 102 -16 89 0 111 7 115 37 1 10 5 34 9 53 9 47 -12 68 -47
47 -23 -13 -46 -14 -240 -5 -102 4 -108 11 -99 105 4 40 10 76 15 80 4 4 96
10 204 13 l197 5 0 70 0 70 -240 -1 c-132 -1 -247 -3 -255 -4 -8 -2 -26 0 -40
4 -20 5 -31 1 -48 -17z M8978 1853 c-37 -4 -53 -26 -25 -36 8 -3 5 -12 -10
-29 -25 -26 -30 -48 -12 -48 7 0 9 -9 5 -22 -7 -27 -7 -461 0 -593 5 -93 15
-118 36 -97 16 16 43 15 58 -3 10 -12 16 -13 27 -3 9 7 25 12 37 13 20 0 21 6
26 116 6 136 18 164 56 128 l22 -21 12 22 c11 20 13 21 30 5 17 -16 19 -15 30
5 11 21 13 21 31 4 18 -16 23 -15 117 16 86 28 100 36 109 61 7 17 21 31 36
34 44 12 66 141 40 244 -14 56 -92 161 -120 161 -7 0 -36 11 -63 25 -48 24
-56 25 -227 23 -98 -1 -195 -3 -215 -5z m386 -170 c69 -48 74 -56 74 -120 0
-62 -11 -84 -60 -116 -17 -11 -37 -15 -52 -11 -13 3 -27 1 -31 -5 -4 -8 -12
-8 -26 -1 -15 8 -21 7 -25 -3 -7 -21 -88 -15 -113 7 -16 15 -19 32 -20 126 -2
144 3 150 126 150 78 0 91 -3 127 -27z m-107 -345 c-3 -7 -5 -2 -5 12 0 14 2
19 5 13 2 -7 2 -19 0 -25z m-237 -228 c0 -11 -7 -20 -15 -20 -15 0 -21 21 -8
33 12 13 23 7 23 -13z M9790 1845 c-14 -17 -16 -63 -18 -410 -1 -268 0 -253
-7 -315 -4 -27 -1 -54 7 -69 13 -23 15 -23 158 -23 80 1 179 2 220 4 41 1 95
1 120 -1 45 -2 98 3 106 12 3 2 1 33 -3 68 l-8 64 -207 0 c-200 0 -207 1 -227
22 -22 23 -28 53 -11 53 18 0 31 39 20 60 -15 27 -4 57 23 67 12 4 96 7 187 8
l165 0 3 58 c2 32 -1 64 -7 70 -7 9 -50 10 -156 5 -116 -5 -154 -3 -181 8 -39
16 -51 49 -36 92 5 16 8 40 5 54 -4 23 -1 26 43 32 26 3 113 6 194 6 l147 0
18 34 c15 28 17 42 9 73 l-9 38 -271 3 c-234 2 -273 0 -284 -13z M10625 1851
c-58 -6 -60 -7 -63 -36 -2 -16 -9 -36 -15 -44 -13 -16 -10 -591 3 -605 5 -5 4
-17 -3 -26 -8 -14 -8 -29 1 -59 12 -39 14 -40 55 -38 23 1 51 -1 63 -6 12 -4
27 -2 38 6 15 11 16 17 5 40 -9 20 -9 33 -1 52 6 13 7 27 3 29 -15 10 1 100
23 128 25 33 33 34 41 8 5 -17 15 -20 63 -20 l57 0 40 -62 c22 -35 44 -72 48
-83 16 -39 60 -95 75 -95 9 0 24 8 34 17 17 15 20 15 39 -6 12 -12 28 -20 36
-17 8 3 19 6 25 6 16 0 3 78 -16 99 -9 10 -16 25 -16 34 0 8 -16 28 -35 44
-20 17 -37 42 -41 60 -7 34 3 46 70 93 52 37 65 79 65 210 l-1 111 -40 29
c-23 17 -46 30 -53 30 -6 0 -17 11 -23 25 -6 14 -18 25 -27 25 -8 0 -22 11
-31 25 -10 16 -25 24 -42 24 -15 0 -92 1 -172 4 -80 2 -172 1 -205 -2z m200
-142 c11 1 48 -1 83 -5 56 -5 67 -10 95 -41 45 -49 46 -52 36 -111 -6 -38 -16
-61 -36 -81 -35 -33 -94 -54 -132 -46 -35 8 -56 -14 -47 -50 9 -37 -2 -50 -25
-29 -18 17 -20 16 -34 -2 -14 -18 -14 -18 -15 3 0 12 -7 29 -16 38 -17 16 -18
36 -14 292 0 23 43 46 70 36 8 -3 24 -5 35 -4z m245 -9 c0 -5 -4 -10 -10 -10
-5 0 -10 5 -10 10 0 6 5 10 10 10 6 0 10 -4 10 -10z m77 -182 c-3 -7 -5 -2 -5
12 0 14 2 19 5 13 2 -7 2 -19 0 -25z m-505 -193 c-7 -25 -9 -26 -15 -11 -9 23
2 61 14 49 5 -5 5 -22 1 -38z M10757 1426 c-3 -8 3 -22 13 -31 18 -16 20 -16
26 -1 8 22 -2 46 -20 46 -7 0 -16 -6 -19 -14z M11725 1849 c-4 -5 -19 -9 -33
-8 -53 4 -69 -1 -80 -26 -7 -14 -12 -32 -12 -40 0 -8 -11 -31 -25 -51 -14 -20
-25 -49 -25 -64 0 -15 -6 -33 -14 -39 -8 -7 -17 -27 -20 -45 -4 -19 -13 -39
-20 -45 -8 -6 -16 -26 -20 -44 -4 -17 -16 -40 -28 -49 -21 -15 -21 -20 -10
-50 6 -19 11 -48 11 -64 -1 -20 -3 -23 -6 -9 -10 45 -12 48 -28 35 -8 -7 -15
-22 -15 -34 0 -12 -7 -31 -15 -42 -8 -10 -15 -29 -15 -41 0 -29 -21 -76 -38
-86 -8 -6 -11 -18 -7 -36 4 -20 0 -32 -15 -46 -34 -31 -9 -46 72 -43 73 2 88
9 68 33 -7 8 -9 15 -4 15 5 0 22 12 38 26 24 21 27 29 19 43 -8 13 -6 23 9 41
20 25 22 25 192 25 94 0 176 3 182 7 18 12 52 -29 69 -84 8 -28 15 -57 15 -63
0 -7 9 -20 21 -31 16 -15 24 -16 39 -6 25 15 65 15 90 0 16 -10 23 -10 37 4
16 17 16 19 -4 40 -11 13 -23 39 -27 59 -5 29 -12 38 -33 44 -19 4 -23 9 -14
18 17 17 13 36 -13 68 -13 15 -27 46 -31 68 -3 22 -13 42 -21 45 -9 3 -14 21
-14 49 0 27 -6 49 -15 57 -8 7 -15 26 -15 42 0 16 -6 31 -15 34 -8 4 -15 14
-15 23 0 9 -4 23 -9 30 -8 12 -12 10 -22 -12 -7 -15 -20 -27 -31 -27 -27 0
-23 42 8 69 23 20 24 24 11 39 -8 9 -18 35 -22 57 -10 56 -22 75 -50 75 -13 0
-32 11 -43 25 -21 26 -46 33 -57 14z m-70 -119 c11 -17 -5 -32 -21 -19 -8 6
-14 15 -14 20 0 12 27 11 35 -1z m-19 -75 c-4 -14 -11 -23 -16 -20 -14 9 -12
43 3 48 18 6 20 1 13 -28z m107 -27 c26 -76 78 -182 94 -191 19 -12 16 -68 -6
-97 -18 -23 -21 -24 -38 -8 -22 20 -94 25 -140 10 -46 -15 -62 5 -44 55 12 32
11 38 -3 48 -9 7 -16 21 -16 31 -1 10 -7 30 -15 44 -17 29 -19 60 -5 60 6 0
10 -5 10 -12 0 -6 11 -35 25 -65 26 -55 45 -62 45 -17 0 14 12 50 26 80 15 32
23 62 19 74 -3 11 -3 24 0 30 14 22 31 7 48 -42z m64 -50 c-3 -7 -5 -2 -5 12
0 14 2 19 5 13 2 -7 2 -19 0 -25z m43 -53 c0 -16 -6 -25 -15 -25 -9 0 -15 9
-15 25 0 16 6 25 15 25 9 0 15 -9 15 -25z m65 -275 c-3 -5 -11 -10 -16 -10 -6
0 -7 5 -4 10 3 6 11 10 16 10 6 0 7 -4 4 -10z M12241 1846 c-9 -11 -18 -12
-41 -3 -42 16 -64 -5 -55 -52 9 -47 24 -64 53 -58 14 3 26 -1 29 -9 4 -10 24
-14 72 -14 119 0 107 25 116 -258 4 -136 11 -252 16 -258 6 -7 3 -25 -6 -47
-19 -45 -4 -94 32 -108 36 -14 105 -10 127 6 19 14 19 16 2 34 -15 17 -16 23
-5 43 17 30 26 503 11 547 l-10 30 61 6 c34 3 91 7 127 8 l65 3 3 63 c3 73 -5
84 -50 69 -21 -8 -33 -7 -41 1 -18 18 -491 15 -506 -3z m-14 -88 c-3 -7 -5 -2
-5 12 0 14 2 19 5 13 2 -7 2 -19 0 -25z M12999 1850 c-21 -12 -45 -96 -32
-112 6 -8 7 -49 3 -103 -9 -112 -6 -402 4 -515 10 -99 23 -119 64 -92 14 9 38
15 53 14 53 -6 56 16 59 428 1 124 -1 233 -5 244 -5 11 -3 21 6 26 11 7 11 13
-1 35 -11 20 -11 31 -3 44 9 14 9 21 0 30 -13 13 -125 14 -148 1z M16205 1853
c-45 -7 -55 -19 -44 -55 5 -19 4 -38 -2 -50 -6 -11 -9 -28 -6 -39 3 -10 -1
-23 -8 -29 -19 -16 -12 -629 7 -642 19 -12 72 -10 86 4 9 9 18 9 37 0 31 -14
402 -16 424 -2 8 5 12 18 9 33 -3 14 -1 31 3 38 4 7 1 25 -6 40 l-15 27 -182
1 c-100 1 -183 3 -185 4 -1 2 -3 150 -3 330 -1 180 -4 328 -8 331 -14 7 -78
13 -107 9z M17215 1851 l-40 -6 3 -325 c2 -179 4 -338 4 -355 0 -16 -1 -49 -3
-72 -2 -24 2 -48 9 -55 6 -6 38 -13 72 -14 74 -4 69 -18 82 208 4 58 17 75 48
58 13 -7 36 -9 56 -5 49 9 70 -1 95 -43 12 -20 27 -41 33 -47 19 -17 66 -91
66 -103 0 -6 10 -17 23 -23 12 -6 31 -21 41 -31 15 -17 28 -19 68 -16 27 3 57
12 65 21 15 14 15 18 1 39 -9 13 -27 36 -42 51 -14 15 -26 36 -26 46 0 10 -11
35 -25 55 -37 55 -33 79 20 116 25 17 48 42 51 55 3 13 12 29 20 36 10 8 14
39 14 118 l0 107 -47 50 c-88 93 -122 117 -177 127 -61 11 -354 17 -411 8z
m347 -73 c-9 -9 -15 -9 -24 0 -9 9 -7 12 12 12 19 0 21 -3 12 -12z m-322 -18
c0 -5 -2 -10 -4 -10 -3 0 -8 5 -11 10 -3 6 -1 10 4 10 6 0 11 -4 11 -10z m364
-66 c30 -10 51 -24 56 -38 5 -11 17 -43 27 -69 11 -31 26 -52 41 -58 13 -5 22
-17 22 -29 0 -26 -12 -26 -28 1 -13 20 -14 20 -59 -17 -47 -39 -84 -49 -210
-59 -29 -2 -57 -6 -62 -10 -6 -3 -19 3 -31 15 -18 18 -20 33 -20 140 0 116 1
121 23 130 38 15 189 11 241 -6z m-337 -536 c-3 -7 -5 -2 -5 12 0 14 2 19 5
13 2 -7 2 -19 0 -25z m483 -38 c0 -5 -4 -10 -10 -10 -5 0 -10 5 -10 10 0 6 5
10 10 10 6 0 10 -4 10 -10z M18817 1849 c-16 -9 -18 -18 -12 -56 5 -33 2 -51
-10 -69 -12 -19 -13 -29 -5 -38 7 -9 10 -95 9 -260 -1 -187 2 -250 11 -261 10
-12 10 -19 2 -27 -9 -9 -8 -16 3 -28 15 -17 11 -50 -6 -50 -15 0 -10 -28 7
-34 22 -8 127 -7 140 2 25 16 34 55 34 141 0 77 3 92 18 100 10 6 28 8 39 5
11 -3 37 -1 58 5 29 8 42 7 60 -5 20 -13 24 -13 35 1 7 8 23 15 37 15 40 0 63
18 63 49 0 30 29 67 31 40 1 -8 2 -21 3 -29 0 -8 7 -15 14 -14 6 1 19 2 27 3
24 2 55 39 55 64 0 16 9 28 26 35 20 10 24 16 18 35 -5 12 -7 66 -5 120 1 55
-2 97 -7 97 -5 0 -12 13 -15 29 -5 22 -14 32 -42 41 -20 7 -41 22 -46 33 -6
13 -31 30 -62 41 -44 17 -76 20 -209 19 -87 -1 -170 -3 -185 -4 -16 -2 -37 0
-48 3 -11 4 -28 2 -38 -3z m103 -79 c0 -13 -7 -20 -20 -20 -23 0 -26 10 -8 28
18 18 28 15 28 -8z m276 -69 c5 -5 22 -11 39 -13 18 -2 34 -11 40 -24 6 -12
16 -28 22 -35 6 -9 8 -36 4 -72 -6 -49 -12 -62 -42 -87 -18 -16 -45 -29 -59
-30 -42 0 -130 -42 -130 -61 0 -25 -30 -53 -43 -40 -8 8 -4 18 12 35 31 33 22
56 -23 56 -40 0 -47 12 -33 57 7 22 7 48 1 76 -6 23 -7 56 -3 71 5 16 4 37 -2
47 -8 16 -4 18 33 22 88 8 174 7 184 -2z m204 -176 c0 -15 -6 -25 -14 -25 -19
0 -28 14 -20 34 10 25 34 19 34 -9z M21395 1850 c-4 -6 -2 -17 4 -24 8 -10 7
-17 -4 -26 -8 -7 -12 -17 -8 -23 3 -5 6 -24 7 -41 1 -22 5 -30 16 -27 8 2 38
5 65 5 45 1 50 3 50 24 1 26 20 42 53 42 28 0 29 -25 2 -40 -34 -18 -23 -30
28 -30 51 0 82 -12 63 -25 -8 -5 -12 -59 -13 -173 0 -92 -1 -230 -2 -308 -1
-170 1 -174 82 -168 31 2 60 3 63 4 9 0 16 614 8 650 -3 13 17 15 133 18 l136
3 0 45 c-1 24 -5 47 -10 50 -5 3 -4 12 2 19 26 31 0 36 -176 34 -96 -1 -177
-5 -180 -11 -3 -5 -11 -4 -20 3 -8 6 -21 8 -31 4 -10 -5 -24 -7 -31 -6 -8 1
-19 -2 -26 -8 -15 -12 -105 -6 -120 9 -13 13 -83 13 -91 0z m93 -50 c10 -17
10 -21 -2 -26 -26 -10 -51 1 -54 24 -3 17 1 22 20 22 13 0 29 -9 36 -20z m352
10 c0 -5 -7 -10 -15 -10 -8 0 -15 5 -15 10 0 6 7 10 15 10 8 0 15 -4 15 -10z
m-160 -50 c0 -5 -4 -10 -10 -10 -5 0 -10 5 -10 10 0 6 5 10 10 10 6 0 10 -4
10 -10z m81 -631 c7 -14 8 -24 1 -31 -17 -17 -42 -1 -42 27 0 31 25 34 41 4z"/>
  </g>
</svg>
